G04 EAGLE Gerber RS-274X export*
G75*
%MOMM*%
%FSLAX34Y34*%
%LPD*%
%INBottom Copper*%
%IPPOS*%
%AMOC8*
5,1,8,0,0,1.08239X$1,22.5*%
G01*
%ADD10P,1.539592X8X202.500000*%
%ADD11P,1.539592X8X22.500000*%
%ADD12P,1.539592X8X292.500000*%
%ADD13C,1.320800*%
%ADD14P,1.429621X8X202.500000*%
%ADD15P,1.429621X8X112.500000*%
%ADD16P,1.429621X8X22.500000*%
%ADD17P,1.814519X8X202.500000*%
%ADD18P,1.814519X8X292.500000*%
%ADD19P,1.814519X8X22.500000*%
%ADD20R,1.338000X1.338000*%
%ADD21C,1.338000*%
%ADD22C,1.508000*%
%ADD23C,0.500000*%

G36*
X297938Y10005D02*
X297938Y10005D01*
X297988Y10003D01*
X298160Y10025D01*
X298333Y10041D01*
X298381Y10054D01*
X298431Y10060D01*
X298596Y10113D01*
X298764Y10159D01*
X298809Y10181D01*
X298856Y10196D01*
X299010Y10277D01*
X299166Y10352D01*
X299207Y10382D01*
X299251Y10405D01*
X299388Y10512D01*
X299528Y10614D01*
X299563Y10650D01*
X299602Y10681D01*
X299718Y10811D01*
X299838Y10936D01*
X299865Y10978D01*
X299899Y11016D01*
X299989Y11164D01*
X300085Y11308D01*
X300105Y11354D01*
X300131Y11397D01*
X300193Y11559D01*
X300262Y11719D01*
X300273Y11767D01*
X300291Y11814D01*
X300324Y11985D01*
X300363Y12154D01*
X300366Y12204D01*
X300375Y12253D01*
X300387Y12500D01*
X300387Y14801D01*
X310000Y14801D01*
X319613Y14801D01*
X319613Y12500D01*
X319617Y12450D01*
X319615Y12400D01*
X319637Y12228D01*
X319653Y12055D01*
X319666Y12007D01*
X319672Y11957D01*
X319725Y11792D01*
X319771Y11624D01*
X319793Y11579D01*
X319808Y11532D01*
X319889Y11378D01*
X319964Y11222D01*
X319994Y11181D01*
X320017Y11137D01*
X320124Y11000D01*
X320226Y10860D01*
X320262Y10825D01*
X320293Y10786D01*
X320423Y10670D01*
X320548Y10550D01*
X320590Y10523D01*
X320628Y10489D01*
X320776Y10399D01*
X320920Y10303D01*
X320966Y10283D01*
X321009Y10257D01*
X321171Y10195D01*
X321331Y10126D01*
X321379Y10115D01*
X321426Y10097D01*
X321597Y10064D01*
X321766Y10025D01*
X321816Y10022D01*
X321865Y10013D01*
X322112Y10001D01*
X417500Y10001D01*
X417550Y10005D01*
X417600Y10003D01*
X417772Y10025D01*
X417945Y10041D01*
X417993Y10054D01*
X418043Y10060D01*
X418208Y10113D01*
X418376Y10159D01*
X418421Y10181D01*
X418468Y10196D01*
X418622Y10277D01*
X418778Y10352D01*
X418819Y10382D01*
X418863Y10405D01*
X419000Y10512D01*
X419140Y10614D01*
X419175Y10650D01*
X419214Y10681D01*
X419330Y10811D01*
X419450Y10936D01*
X419477Y10978D01*
X419511Y11016D01*
X419601Y11164D01*
X419697Y11308D01*
X419717Y11354D01*
X419743Y11397D01*
X419805Y11559D01*
X419874Y11719D01*
X419885Y11767D01*
X419903Y11814D01*
X419936Y11985D01*
X419975Y12154D01*
X419978Y12204D01*
X419987Y12253D01*
X419999Y12500D01*
X419999Y507500D01*
X419995Y507550D01*
X419997Y507600D01*
X419975Y507772D01*
X419959Y507945D01*
X419946Y507993D01*
X419940Y508043D01*
X419887Y508208D01*
X419841Y508376D01*
X419819Y508421D01*
X419804Y508468D01*
X419723Y508622D01*
X419648Y508778D01*
X419618Y508819D01*
X419595Y508863D01*
X419488Y509000D01*
X419386Y509140D01*
X419350Y509175D01*
X419319Y509214D01*
X419189Y509330D01*
X419064Y509450D01*
X419022Y509477D01*
X418984Y509511D01*
X418836Y509601D01*
X418692Y509697D01*
X418646Y509717D01*
X418603Y509743D01*
X418441Y509805D01*
X418281Y509874D01*
X418233Y509885D01*
X418186Y509903D01*
X418015Y509936D01*
X417846Y509975D01*
X417796Y509978D01*
X417747Y509987D01*
X417500Y509999D01*
X12500Y509999D01*
X12450Y509995D01*
X12400Y509997D01*
X12228Y509975D01*
X12055Y509959D01*
X12007Y509946D01*
X11957Y509940D01*
X11792Y509887D01*
X11624Y509841D01*
X11579Y509819D01*
X11532Y509804D01*
X11378Y509723D01*
X11222Y509648D01*
X11181Y509618D01*
X11137Y509595D01*
X11000Y509488D01*
X10860Y509386D01*
X10825Y509350D01*
X10786Y509319D01*
X10670Y509189D01*
X10550Y509064D01*
X10523Y509022D01*
X10489Y508984D01*
X10399Y508836D01*
X10303Y508692D01*
X10283Y508646D01*
X10257Y508603D01*
X10195Y508441D01*
X10126Y508281D01*
X10115Y508233D01*
X10097Y508186D01*
X10064Y508015D01*
X10025Y507846D01*
X10022Y507796D01*
X10013Y507747D01*
X10001Y507500D01*
X10001Y12500D01*
X10005Y12450D01*
X10003Y12400D01*
X10025Y12228D01*
X10041Y12055D01*
X10054Y12007D01*
X10060Y11957D01*
X10113Y11792D01*
X10159Y11624D01*
X10181Y11579D01*
X10196Y11532D01*
X10277Y11378D01*
X10352Y11222D01*
X10382Y11181D01*
X10405Y11137D01*
X10512Y11000D01*
X10614Y10860D01*
X10650Y10825D01*
X10681Y10786D01*
X10811Y10670D01*
X10936Y10550D01*
X10978Y10523D01*
X11016Y10489D01*
X11164Y10399D01*
X11308Y10303D01*
X11354Y10283D01*
X11397Y10257D01*
X11559Y10195D01*
X11719Y10126D01*
X11767Y10115D01*
X11814Y10097D01*
X11985Y10064D01*
X12154Y10025D01*
X12204Y10022D01*
X12253Y10013D01*
X12500Y10001D01*
X297888Y10001D01*
X297938Y10005D01*
G37*
%LPC*%
G36*
X310000Y19799D02*
X310000Y19799D01*
X300387Y19799D01*
X300387Y21282D01*
X305571Y26465D01*
X305603Y26503D01*
X305640Y26537D01*
X305746Y26675D01*
X305857Y26808D01*
X305882Y26851D01*
X305912Y26891D01*
X305992Y27045D01*
X306078Y27196D01*
X306094Y27243D01*
X306117Y27288D01*
X306168Y27453D01*
X306226Y27618D01*
X306234Y27667D01*
X306248Y27715D01*
X306269Y27887D01*
X306297Y28059D01*
X306296Y28109D01*
X306301Y28158D01*
X306291Y28332D01*
X306288Y28505D01*
X306278Y28554D01*
X306275Y28604D01*
X306234Y28773D01*
X306199Y28943D01*
X306181Y28990D01*
X306169Y29038D01*
X306099Y29197D01*
X306035Y29358D01*
X306008Y29401D01*
X305988Y29447D01*
X305890Y29590D01*
X305798Y29738D01*
X305765Y29775D01*
X305737Y29816D01*
X305571Y29999D01*
X301103Y34467D01*
X300960Y34587D01*
X300820Y34711D01*
X300788Y34730D01*
X300760Y34754D01*
X300598Y34846D01*
X300438Y34943D01*
X300404Y34956D01*
X300372Y34974D01*
X300196Y35036D01*
X300021Y35103D01*
X299985Y35110D01*
X299950Y35123D01*
X299766Y35152D01*
X299583Y35187D01*
X299532Y35190D01*
X299509Y35193D01*
X299472Y35192D01*
X299336Y35199D01*
X290561Y35199D01*
X290375Y35183D01*
X290188Y35171D01*
X290153Y35163D01*
X290116Y35159D01*
X289935Y35110D01*
X289754Y35066D01*
X289721Y35051D01*
X289685Y35041D01*
X289516Y34960D01*
X289346Y34884D01*
X289316Y34864D01*
X289282Y34848D01*
X289131Y34738D01*
X288977Y34633D01*
X288939Y34599D01*
X288920Y34586D01*
X288895Y34559D01*
X288793Y34467D01*
X285543Y31217D01*
X274457Y31217D01*
X269507Y36167D01*
X269402Y36254D01*
X269304Y36349D01*
X269231Y36397D01*
X269164Y36453D01*
X269046Y36521D01*
X268932Y36596D01*
X268852Y36631D01*
X268776Y36674D01*
X268647Y36719D01*
X268521Y36773D01*
X268437Y36793D01*
X268355Y36822D01*
X268219Y36844D01*
X268086Y36875D01*
X268000Y36879D01*
X267914Y36893D01*
X267777Y36890D01*
X267640Y36897D01*
X267554Y36886D01*
X267467Y36884D01*
X267333Y36857D01*
X267197Y36839D01*
X267114Y36813D01*
X267029Y36796D01*
X266902Y36745D01*
X266772Y36704D01*
X266695Y36663D01*
X266614Y36631D01*
X266498Y36558D01*
X266377Y36494D01*
X266309Y36441D01*
X266235Y36395D01*
X266133Y36303D01*
X266026Y36218D01*
X265968Y36153D01*
X265904Y36095D01*
X265820Y35986D01*
X265729Y35884D01*
X265684Y35810D01*
X265631Y35741D01*
X265568Y35619D01*
X265497Y35502D01*
X265466Y35421D01*
X265426Y35344D01*
X265386Y35213D01*
X265337Y35086D01*
X265320Y35000D01*
X265295Y34917D01*
X265279Y34781D01*
X265253Y34647D01*
X265246Y34510D01*
X265242Y34473D01*
X265243Y34450D01*
X265241Y34400D01*
X265241Y29965D01*
X263332Y25356D01*
X259804Y21828D01*
X255195Y19919D01*
X250205Y19919D01*
X245596Y21828D01*
X242068Y25356D01*
X240951Y28054D01*
X240933Y28089D01*
X240920Y28125D01*
X240829Y28287D01*
X240744Y28450D01*
X240720Y28481D01*
X240701Y28515D01*
X240583Y28657D01*
X240469Y28803D01*
X240441Y28829D01*
X240416Y28858D01*
X240275Y28977D01*
X240137Y29101D01*
X240104Y29121D01*
X240074Y29146D01*
X239914Y29238D01*
X239756Y29335D01*
X239720Y29349D01*
X239687Y29368D01*
X239512Y29430D01*
X239340Y29498D01*
X239302Y29505D01*
X239266Y29518D01*
X239084Y29548D01*
X238902Y29584D01*
X238863Y29584D01*
X238825Y29591D01*
X238640Y29588D01*
X238455Y29590D01*
X238417Y29584D01*
X238378Y29583D01*
X238197Y29548D01*
X238015Y29517D01*
X237978Y29504D01*
X237940Y29497D01*
X237768Y29429D01*
X237594Y29367D01*
X237560Y29348D01*
X237524Y29333D01*
X237367Y29236D01*
X237207Y29144D01*
X237177Y29119D01*
X237144Y29099D01*
X237006Y28975D01*
X236865Y28856D01*
X236841Y28826D01*
X236812Y28800D01*
X236699Y28654D01*
X236581Y28512D01*
X236562Y28478D01*
X236538Y28447D01*
X236415Y28233D01*
X235888Y27198D01*
X234959Y25919D01*
X233841Y24801D01*
X232562Y23872D01*
X231154Y23155D01*
X229799Y22715D01*
X229799Y40000D01*
X229799Y57285D01*
X231154Y56845D01*
X232562Y56128D01*
X233841Y55199D01*
X234959Y54081D01*
X235888Y52802D01*
X236415Y51767D01*
X236436Y51735D01*
X236451Y51699D01*
X236554Y51546D01*
X236653Y51389D01*
X236679Y51360D01*
X236700Y51328D01*
X236829Y51196D01*
X236954Y51059D01*
X236984Y51036D01*
X237011Y51008D01*
X237162Y50900D01*
X237309Y50788D01*
X237343Y50770D01*
X237375Y50748D01*
X237542Y50669D01*
X237706Y50584D01*
X237743Y50573D01*
X237778Y50557D01*
X237957Y50508D01*
X238134Y50455D01*
X238172Y50451D01*
X238210Y50440D01*
X238395Y50425D01*
X238578Y50404D01*
X238616Y50406D01*
X238655Y50403D01*
X238839Y50420D01*
X239023Y50432D01*
X239061Y50441D01*
X239100Y50445D01*
X239277Y50495D01*
X239457Y50539D01*
X239492Y50555D01*
X239530Y50566D01*
X239696Y50646D01*
X239864Y50722D01*
X239896Y50744D01*
X239931Y50761D01*
X240080Y50870D01*
X240233Y50975D01*
X240261Y51002D01*
X240292Y51025D01*
X240419Y51158D01*
X240551Y51289D01*
X240573Y51321D01*
X240600Y51349D01*
X240701Y51503D01*
X240807Y51654D01*
X240824Y51690D01*
X240845Y51722D01*
X240951Y51946D01*
X242068Y54644D01*
X245596Y58172D01*
X250205Y60081D01*
X255195Y60081D01*
X259804Y58172D01*
X263332Y54644D01*
X263746Y53644D01*
X263749Y53638D01*
X263751Y53632D01*
X263852Y53440D01*
X263953Y53248D01*
X263957Y53243D01*
X263960Y53237D01*
X264094Y53067D01*
X264227Y52895D01*
X264232Y52891D01*
X264236Y52886D01*
X264397Y52743D01*
X264560Y52597D01*
X264566Y52594D01*
X264570Y52589D01*
X264753Y52478D01*
X264940Y52363D01*
X264946Y52361D01*
X264952Y52357D01*
X265155Y52279D01*
X265356Y52200D01*
X265363Y52199D01*
X265369Y52197D01*
X265583Y52156D01*
X265795Y52114D01*
X265801Y52114D01*
X265808Y52113D01*
X266055Y52101D01*
X267539Y52101D01*
X267725Y52117D01*
X267912Y52129D01*
X267947Y52137D01*
X267984Y52141D01*
X268165Y52190D01*
X268346Y52234D01*
X268379Y52249D01*
X268415Y52259D01*
X268584Y52340D01*
X268754Y52416D01*
X268784Y52436D01*
X268818Y52452D01*
X268969Y52562D01*
X269123Y52667D01*
X269161Y52701D01*
X269180Y52714D01*
X269205Y52741D01*
X269307Y52833D01*
X274457Y57983D01*
X281740Y57983D01*
X281926Y57999D01*
X282112Y58011D01*
X282148Y58019D01*
X282185Y58023D01*
X282365Y58072D01*
X282546Y58116D01*
X282580Y58131D01*
X282615Y58141D01*
X282784Y58222D01*
X282954Y58298D01*
X282985Y58318D01*
X283018Y58334D01*
X283169Y58444D01*
X283324Y58549D01*
X283361Y58583D01*
X283380Y58596D01*
X283406Y58623D01*
X283507Y58715D01*
X303025Y78233D01*
X303113Y78338D01*
X303208Y78436D01*
X303256Y78509D01*
X303312Y78576D01*
X303379Y78694D01*
X303455Y78808D01*
X303489Y78888D01*
X303532Y78964D01*
X303578Y79093D01*
X303632Y79219D01*
X303652Y79303D01*
X303680Y79385D01*
X303702Y79521D01*
X303733Y79654D01*
X303737Y79740D01*
X303751Y79826D01*
X303748Y79963D01*
X303755Y80100D01*
X303744Y80186D01*
X303742Y80273D01*
X303715Y80407D01*
X303698Y80543D01*
X303671Y80626D01*
X303654Y80711D01*
X303603Y80838D01*
X303562Y80968D01*
X303521Y81045D01*
X303489Y81126D01*
X303417Y81242D01*
X303353Y81363D01*
X303299Y81431D01*
X303253Y81505D01*
X303161Y81607D01*
X303077Y81714D01*
X303012Y81772D01*
X302953Y81836D01*
X302845Y81920D01*
X302742Y82011D01*
X302668Y82056D01*
X302599Y82109D01*
X302477Y82172D01*
X302361Y82243D01*
X302280Y82274D01*
X302202Y82314D01*
X302072Y82354D01*
X301944Y82403D01*
X301858Y82420D01*
X301775Y82445D01*
X301640Y82461D01*
X301505Y82487D01*
X301368Y82494D01*
X301332Y82498D01*
X301308Y82497D01*
X301258Y82499D01*
X301203Y82499D01*
X301017Y82483D01*
X300831Y82471D01*
X300795Y82463D01*
X300758Y82459D01*
X300577Y82410D01*
X300397Y82366D01*
X300363Y82351D01*
X300327Y82341D01*
X300159Y82260D01*
X299988Y82184D01*
X299958Y82164D01*
X299924Y82148D01*
X299773Y82038D01*
X299619Y81933D01*
X299581Y81899D01*
X299562Y81886D01*
X299545Y81867D01*
X299542Y81865D01*
X299531Y81854D01*
X299435Y81767D01*
X290827Y73159D01*
X288071Y72017D01*
X271929Y72017D01*
X269173Y73159D01*
X257759Y84573D01*
X256617Y87329D01*
X256617Y103471D01*
X257759Y106227D01*
X259067Y107535D01*
X259187Y107679D01*
X259311Y107818D01*
X259330Y107850D01*
X259354Y107878D01*
X259446Y108040D01*
X259543Y108200D01*
X259556Y108234D01*
X259574Y108267D01*
X259636Y108443D01*
X259703Y108617D01*
X259710Y108653D01*
X259723Y108688D01*
X259752Y108872D01*
X259787Y109056D01*
X259790Y109106D01*
X259793Y109129D01*
X259792Y109166D01*
X259799Y109303D01*
X259799Y110054D01*
X259783Y110240D01*
X259771Y110426D01*
X259763Y110462D01*
X259759Y110499D01*
X259710Y110679D01*
X259666Y110860D01*
X259651Y110894D01*
X259641Y110930D01*
X259560Y111098D01*
X259484Y111268D01*
X259464Y111299D01*
X259448Y111332D01*
X259338Y111484D01*
X259233Y111638D01*
X259200Y111675D01*
X259186Y111694D01*
X259159Y111720D01*
X259067Y111821D01*
X257515Y113373D01*
X257477Y113405D01*
X257443Y113442D01*
X257306Y113548D01*
X257172Y113660D01*
X257129Y113684D01*
X257089Y113715D01*
X256935Y113795D01*
X256784Y113880D01*
X256737Y113897D01*
X256692Y113920D01*
X256527Y113971D01*
X256363Y114028D01*
X256313Y114036D01*
X256265Y114051D01*
X256093Y114072D01*
X255922Y114099D01*
X255872Y114098D01*
X255822Y114104D01*
X255648Y114094D01*
X255475Y114090D01*
X255426Y114080D01*
X255376Y114077D01*
X255207Y114036D01*
X255037Y114002D01*
X254991Y113984D01*
X254942Y113972D01*
X254783Y113901D01*
X254622Y113837D01*
X254580Y113811D01*
X254534Y113790D01*
X254390Y113693D01*
X254243Y113601D01*
X254206Y113567D01*
X254164Y113539D01*
X253981Y113373D01*
X224249Y83641D01*
X221492Y82499D01*
X145938Y82499D01*
X143181Y83641D01*
X131145Y95677D01*
X131002Y95797D01*
X130862Y95921D01*
X130831Y95940D01*
X130802Y95964D01*
X130640Y96056D01*
X130481Y96153D01*
X130446Y96166D01*
X130414Y96184D01*
X130238Y96246D01*
X130064Y96313D01*
X130027Y96320D01*
X129993Y96333D01*
X129808Y96362D01*
X129625Y96397D01*
X129575Y96400D01*
X129551Y96403D01*
X129514Y96402D01*
X129378Y96409D01*
X127005Y96409D01*
X122708Y98189D01*
X119419Y101478D01*
X117639Y105775D01*
X117639Y110425D01*
X119419Y114722D01*
X122708Y118011D01*
X123867Y118491D01*
X123988Y118554D01*
X124113Y118609D01*
X124185Y118658D01*
X124262Y118698D01*
X124371Y118782D01*
X124484Y118858D01*
X124546Y118919D01*
X124615Y118972D01*
X124706Y119074D01*
X124805Y119170D01*
X124855Y119240D01*
X124913Y119305D01*
X124985Y119422D01*
X125065Y119533D01*
X125102Y119612D01*
X125147Y119686D01*
X125197Y119813D01*
X125256Y119937D01*
X125278Y120021D01*
X125310Y120102D01*
X125336Y120236D01*
X125372Y120368D01*
X125379Y120455D01*
X125396Y120540D01*
X125398Y120677D01*
X125410Y120813D01*
X125401Y120900D01*
X125403Y120987D01*
X125380Y121122D01*
X125367Y121258D01*
X125344Y121341D01*
X125330Y121427D01*
X125284Y121556D01*
X125247Y121688D01*
X125209Y121766D01*
X125179Y121848D01*
X125111Y121967D01*
X125051Y122090D01*
X125000Y122160D01*
X124956Y122235D01*
X124868Y122340D01*
X124787Y122450D01*
X124725Y122510D01*
X124668Y122576D01*
X124563Y122664D01*
X124464Y122758D01*
X124391Y122806D01*
X124324Y122861D01*
X124205Y122928D01*
X124090Y123003D01*
X123967Y123062D01*
X123935Y123080D01*
X123912Y123087D01*
X123867Y123109D01*
X122708Y123589D01*
X119419Y126878D01*
X117481Y131556D01*
X117438Y131639D01*
X117403Y131726D01*
X117334Y131837D01*
X117274Y131952D01*
X117216Y132026D01*
X117167Y132105D01*
X117080Y132202D01*
X117000Y132305D01*
X116930Y132367D01*
X116867Y132436D01*
X116764Y132516D01*
X116667Y132603D01*
X116587Y132652D01*
X116513Y132709D01*
X116398Y132769D01*
X116287Y132837D01*
X116199Y132871D01*
X116117Y132914D01*
X115992Y132952D01*
X115871Y133000D01*
X115779Y133018D01*
X115690Y133045D01*
X115560Y133061D01*
X115432Y133086D01*
X115339Y133087D01*
X115246Y133098D01*
X115116Y133090D01*
X114986Y133092D01*
X114893Y133077D01*
X114800Y133071D01*
X114674Y133041D01*
X114545Y133019D01*
X114457Y132988D01*
X114366Y132966D01*
X114247Y132913D01*
X114124Y132869D01*
X114043Y132822D01*
X113958Y132784D01*
X113850Y132711D01*
X113737Y132646D01*
X113666Y132586D01*
X113588Y132533D01*
X113405Y132367D01*
X108233Y127195D01*
X108113Y127052D01*
X107989Y126912D01*
X107970Y126881D01*
X107946Y126852D01*
X107854Y126690D01*
X107757Y126531D01*
X107744Y126496D01*
X107726Y126464D01*
X107664Y126288D01*
X107597Y126114D01*
X107590Y126077D01*
X107577Y126043D01*
X107548Y125858D01*
X107513Y125675D01*
X107510Y125625D01*
X107507Y125601D01*
X107508Y125564D01*
X107501Y125428D01*
X107501Y81442D01*
X107517Y81256D01*
X107529Y81070D01*
X107537Y81034D01*
X107541Y80997D01*
X107590Y80817D01*
X107634Y80636D01*
X107649Y80602D01*
X107659Y80567D01*
X107740Y80398D01*
X107816Y80228D01*
X107836Y80197D01*
X107852Y80164D01*
X107962Y80013D01*
X108067Y79858D01*
X108101Y79821D01*
X108114Y79802D01*
X108141Y79776D01*
X108233Y79675D01*
X128690Y59218D01*
X128695Y59213D01*
X128699Y59208D01*
X128866Y59071D01*
X129033Y58931D01*
X129039Y58928D01*
X129044Y58924D01*
X129233Y58817D01*
X129421Y58710D01*
X129427Y58708D01*
X129433Y58705D01*
X129637Y58634D01*
X129843Y58562D01*
X129849Y58561D01*
X129855Y58559D01*
X130070Y58526D01*
X130284Y58492D01*
X130290Y58492D01*
X130297Y58491D01*
X130516Y58496D01*
X130730Y58501D01*
X130737Y58502D01*
X130743Y58502D01*
X130958Y58546D01*
X131168Y58589D01*
X131174Y58591D01*
X131181Y58593D01*
X131414Y58676D01*
X134805Y60081D01*
X139795Y60081D01*
X144404Y58172D01*
X147932Y54644D01*
X149049Y51946D01*
X149067Y51911D01*
X149080Y51875D01*
X149171Y51713D01*
X149256Y51550D01*
X149280Y51519D01*
X149299Y51485D01*
X149417Y51343D01*
X149531Y51197D01*
X149559Y51171D01*
X149584Y51142D01*
X149725Y51023D01*
X149863Y50899D01*
X149896Y50879D01*
X149926Y50854D01*
X150086Y50762D01*
X150244Y50665D01*
X150280Y50651D01*
X150313Y50632D01*
X150488Y50570D01*
X150660Y50502D01*
X150698Y50495D01*
X150734Y50482D01*
X150916Y50452D01*
X151098Y50416D01*
X151137Y50416D01*
X151175Y50409D01*
X151360Y50412D01*
X151545Y50410D01*
X151583Y50416D01*
X151622Y50417D01*
X151803Y50452D01*
X151985Y50483D01*
X152022Y50496D01*
X152060Y50503D01*
X152232Y50571D01*
X152406Y50633D01*
X152440Y50652D01*
X152476Y50667D01*
X152633Y50764D01*
X152793Y50856D01*
X152823Y50881D01*
X152856Y50901D01*
X152993Y51025D01*
X153135Y51144D01*
X153159Y51174D01*
X153188Y51200D01*
X153301Y51346D01*
X153419Y51488D01*
X153438Y51522D01*
X153462Y51553D01*
X153585Y51767D01*
X154112Y52802D01*
X155041Y54081D01*
X156159Y55199D01*
X157438Y56128D01*
X158846Y56845D01*
X160201Y57285D01*
X160201Y40000D01*
X160201Y22715D01*
X158846Y23155D01*
X157438Y23872D01*
X156159Y24801D01*
X155041Y25919D01*
X154112Y27198D01*
X153585Y28233D01*
X153564Y28265D01*
X153549Y28301D01*
X153446Y28454D01*
X153347Y28611D01*
X153321Y28640D01*
X153300Y28672D01*
X153171Y28804D01*
X153046Y28941D01*
X153016Y28964D01*
X152989Y28992D01*
X152838Y29100D01*
X152691Y29212D01*
X152657Y29230D01*
X152625Y29252D01*
X152458Y29331D01*
X152294Y29416D01*
X152257Y29427D01*
X152222Y29443D01*
X152043Y29492D01*
X151866Y29545D01*
X151828Y29549D01*
X151790Y29560D01*
X151605Y29575D01*
X151422Y29596D01*
X151384Y29594D01*
X151345Y29597D01*
X151161Y29580D01*
X150977Y29568D01*
X150939Y29559D01*
X150900Y29555D01*
X150723Y29505D01*
X150543Y29461D01*
X150508Y29445D01*
X150470Y29434D01*
X150304Y29354D01*
X150136Y29278D01*
X150104Y29256D01*
X150069Y29239D01*
X149920Y29130D01*
X149767Y29025D01*
X149739Y28998D01*
X149708Y28975D01*
X149581Y28842D01*
X149449Y28711D01*
X149427Y28679D01*
X149400Y28651D01*
X149299Y28497D01*
X149193Y28346D01*
X149176Y28310D01*
X149155Y28278D01*
X149049Y28054D01*
X147932Y25356D01*
X144404Y21828D01*
X139795Y19919D01*
X134805Y19919D01*
X130196Y21828D01*
X126668Y25356D01*
X124759Y29965D01*
X124759Y40898D01*
X124743Y41084D01*
X124731Y41270D01*
X124723Y41306D01*
X124719Y41343D01*
X124670Y41523D01*
X124626Y41704D01*
X124611Y41738D01*
X124601Y41773D01*
X124520Y41942D01*
X124444Y42112D01*
X124424Y42143D01*
X124408Y42176D01*
X124298Y42327D01*
X124193Y42482D01*
X124159Y42519D01*
X124146Y42538D01*
X124119Y42564D01*
X124027Y42665D01*
X93641Y73051D01*
X92499Y75808D01*
X92499Y131062D01*
X93641Y133819D01*
X116907Y157085D01*
X117027Y157228D01*
X117151Y157368D01*
X117170Y157399D01*
X117194Y157428D01*
X117286Y157590D01*
X117383Y157749D01*
X117396Y157784D01*
X117414Y157816D01*
X117476Y157992D01*
X117543Y158166D01*
X117550Y158203D01*
X117563Y158237D01*
X117592Y158422D01*
X117627Y158605D01*
X117630Y158655D01*
X117633Y158679D01*
X117632Y158716D01*
X117639Y158852D01*
X117639Y161225D01*
X119419Y165522D01*
X122708Y168811D01*
X123867Y169291D01*
X123988Y169354D01*
X124113Y169409D01*
X124185Y169458D01*
X124262Y169498D01*
X124371Y169582D01*
X124484Y169658D01*
X124546Y169719D01*
X124615Y169772D01*
X124706Y169874D01*
X124805Y169970D01*
X124855Y170040D01*
X124913Y170105D01*
X124985Y170222D01*
X125065Y170333D01*
X125102Y170412D01*
X125147Y170486D01*
X125197Y170613D01*
X125256Y170737D01*
X125278Y170821D01*
X125310Y170902D01*
X125336Y171036D01*
X125372Y171168D01*
X125379Y171255D01*
X125396Y171340D01*
X125398Y171477D01*
X125410Y171613D01*
X125401Y171700D01*
X125403Y171787D01*
X125380Y171922D01*
X125367Y172058D01*
X125344Y172141D01*
X125330Y172227D01*
X125284Y172356D01*
X125247Y172488D01*
X125209Y172566D01*
X125179Y172648D01*
X125111Y172767D01*
X125051Y172890D01*
X125000Y172960D01*
X124956Y173035D01*
X124868Y173140D01*
X124787Y173250D01*
X124725Y173310D01*
X124668Y173376D01*
X124563Y173464D01*
X124464Y173558D01*
X124391Y173606D01*
X124324Y173661D01*
X124205Y173728D01*
X124090Y173803D01*
X123967Y173862D01*
X123935Y173880D01*
X123912Y173887D01*
X123867Y173909D01*
X122708Y174389D01*
X119419Y177678D01*
X117639Y181975D01*
X117639Y185870D01*
X117635Y185920D01*
X117637Y185970D01*
X117615Y186142D01*
X117599Y186315D01*
X117586Y186363D01*
X117580Y186413D01*
X117527Y186578D01*
X117481Y186746D01*
X117459Y186791D01*
X117444Y186838D01*
X117363Y186992D01*
X117288Y187148D01*
X117258Y187189D01*
X117235Y187233D01*
X117128Y187370D01*
X117026Y187510D01*
X116990Y187545D01*
X116959Y187584D01*
X116829Y187700D01*
X116704Y187820D01*
X116662Y187847D01*
X116624Y187881D01*
X116476Y187971D01*
X116332Y188067D01*
X116286Y188087D01*
X116243Y188113D01*
X116081Y188175D01*
X115921Y188244D01*
X115873Y188255D01*
X115826Y188273D01*
X115655Y188306D01*
X115486Y188345D01*
X115436Y188348D01*
X115387Y188357D01*
X115140Y188369D01*
X99946Y188369D01*
X99760Y188353D01*
X99574Y188341D01*
X99538Y188333D01*
X99501Y188329D01*
X99321Y188280D01*
X99140Y188236D01*
X99106Y188221D01*
X99070Y188211D01*
X98902Y188130D01*
X98732Y188054D01*
X98701Y188034D01*
X98668Y188018D01*
X98517Y187908D01*
X98362Y187803D01*
X98325Y187769D01*
X98306Y187756D01*
X98280Y187729D01*
X98179Y187637D01*
X96573Y186032D01*
X92308Y184265D01*
X87692Y184265D01*
X83427Y186032D01*
X81821Y187637D01*
X81678Y187757D01*
X81538Y187881D01*
X81507Y187900D01*
X81478Y187924D01*
X81316Y188016D01*
X81157Y188113D01*
X81122Y188126D01*
X81090Y188144D01*
X80914Y188206D01*
X80740Y188273D01*
X80704Y188280D01*
X80669Y188293D01*
X80484Y188322D01*
X80301Y188357D01*
X80251Y188360D01*
X80228Y188363D01*
X80191Y188362D01*
X80054Y188369D01*
X67312Y188369D01*
X67262Y188365D01*
X67212Y188367D01*
X67040Y188345D01*
X66867Y188329D01*
X66819Y188316D01*
X66769Y188310D01*
X66604Y188257D01*
X66436Y188211D01*
X66391Y188189D01*
X66344Y188174D01*
X66190Y188093D01*
X66034Y188018D01*
X65993Y187988D01*
X65949Y187965D01*
X65812Y187858D01*
X65672Y187756D01*
X65637Y187720D01*
X65598Y187689D01*
X65482Y187559D01*
X65362Y187434D01*
X65335Y187392D01*
X65301Y187354D01*
X65211Y187206D01*
X65115Y187062D01*
X65095Y187016D01*
X65069Y186973D01*
X65007Y186811D01*
X64938Y186651D01*
X64927Y186603D01*
X64909Y186556D01*
X64876Y186385D01*
X64837Y186216D01*
X64834Y186166D01*
X64825Y186117D01*
X64813Y185870D01*
X64813Y184983D01*
X57717Y177887D01*
X47683Y177887D01*
X39999Y185571D01*
X39961Y185603D01*
X39927Y185640D01*
X39790Y185746D01*
X39657Y185857D01*
X39613Y185882D01*
X39573Y185912D01*
X39419Y185992D01*
X39268Y186078D01*
X39221Y186094D01*
X39177Y186117D01*
X39011Y186168D01*
X38847Y186226D01*
X38797Y186234D01*
X38750Y186248D01*
X38578Y186269D01*
X38406Y186297D01*
X38356Y186296D01*
X38306Y186301D01*
X38133Y186291D01*
X37959Y186288D01*
X37910Y186278D01*
X37860Y186275D01*
X37691Y186234D01*
X37521Y186199D01*
X37475Y186181D01*
X37426Y186169D01*
X37268Y186099D01*
X37106Y186035D01*
X37064Y186008D01*
X37018Y185988D01*
X36875Y185890D01*
X36727Y185798D01*
X36690Y185765D01*
X36648Y185737D01*
X36465Y185571D01*
X31282Y180387D01*
X29799Y180387D01*
X29799Y190000D01*
X29799Y199613D01*
X31282Y199613D01*
X36465Y194429D01*
X36503Y194397D01*
X36537Y194360D01*
X36675Y194254D01*
X36808Y194143D01*
X36851Y194118D01*
X36891Y194088D01*
X37045Y194008D01*
X37196Y193922D01*
X37243Y193906D01*
X37288Y193883D01*
X37453Y193832D01*
X37618Y193774D01*
X37667Y193766D01*
X37715Y193752D01*
X37887Y193731D01*
X38059Y193703D01*
X38109Y193704D01*
X38158Y193699D01*
X38332Y193709D01*
X38505Y193712D01*
X38554Y193722D01*
X38604Y193725D01*
X38773Y193766D01*
X38943Y193801D01*
X38990Y193819D01*
X39038Y193831D01*
X39197Y193901D01*
X39358Y193965D01*
X39401Y193992D01*
X39447Y194012D01*
X39590Y194110D01*
X39738Y194202D01*
X39775Y194235D01*
X39816Y194263D01*
X39999Y194429D01*
X47683Y202113D01*
X53544Y202113D01*
X53686Y202126D01*
X53830Y202129D01*
X53908Y202145D01*
X53989Y202153D01*
X54127Y202191D01*
X54267Y202220D01*
X54383Y202261D01*
X54419Y202271D01*
X54444Y202283D01*
X54500Y202303D01*
X57078Y203371D01*
X80054Y203371D01*
X80240Y203387D01*
X80426Y203399D01*
X80462Y203407D01*
X80499Y203411D01*
X80679Y203460D01*
X80860Y203504D01*
X80894Y203519D01*
X80930Y203529D01*
X81098Y203610D01*
X81268Y203686D01*
X81299Y203706D01*
X81332Y203722D01*
X81483Y203832D01*
X81638Y203937D01*
X81675Y203971D01*
X81694Y203984D01*
X81720Y204011D01*
X81821Y204103D01*
X83427Y205708D01*
X87692Y207475D01*
X92308Y207475D01*
X96573Y205708D01*
X98179Y204103D01*
X98322Y203983D01*
X98462Y203859D01*
X98493Y203840D01*
X98522Y203816D01*
X98684Y203724D01*
X98843Y203627D01*
X98878Y203614D01*
X98910Y203596D01*
X99086Y203534D01*
X99260Y203467D01*
X99296Y203460D01*
X99331Y203447D01*
X99516Y203418D01*
X99699Y203383D01*
X99749Y203380D01*
X99772Y203377D01*
X99809Y203378D01*
X99946Y203371D01*
X111358Y203371D01*
X111544Y203387D01*
X111730Y203399D01*
X111766Y203407D01*
X111803Y203411D01*
X111983Y203460D01*
X112164Y203504D01*
X112198Y203519D01*
X112233Y203529D01*
X112402Y203610D01*
X112572Y203686D01*
X112603Y203706D01*
X112636Y203722D01*
X112787Y203832D01*
X112942Y203937D01*
X112979Y203971D01*
X112998Y203984D01*
X113024Y204011D01*
X113125Y204103D01*
X116907Y207885D01*
X117027Y208028D01*
X117151Y208168D01*
X117170Y208199D01*
X117194Y208228D01*
X117286Y208390D01*
X117383Y208549D01*
X117396Y208584D01*
X117414Y208616D01*
X117476Y208792D01*
X117543Y208966D01*
X117550Y209003D01*
X117563Y209037D01*
X117592Y209222D01*
X117627Y209405D01*
X117630Y209455D01*
X117633Y209479D01*
X117632Y209516D01*
X117639Y209652D01*
X117639Y212025D01*
X119419Y216322D01*
X122708Y219611D01*
X123867Y220091D01*
X123988Y220154D01*
X124113Y220209D01*
X124185Y220258D01*
X124262Y220298D01*
X124371Y220382D01*
X124484Y220458D01*
X124546Y220519D01*
X124615Y220572D01*
X124706Y220674D01*
X124805Y220770D01*
X124855Y220840D01*
X124913Y220905D01*
X124985Y221022D01*
X125065Y221133D01*
X125102Y221212D01*
X125147Y221286D01*
X125197Y221413D01*
X125256Y221537D01*
X125278Y221621D01*
X125310Y221702D01*
X125336Y221836D01*
X125372Y221968D01*
X125379Y222055D01*
X125396Y222140D01*
X125398Y222277D01*
X125410Y222413D01*
X125401Y222500D01*
X125403Y222587D01*
X125380Y222722D01*
X125367Y222858D01*
X125344Y222941D01*
X125330Y223027D01*
X125284Y223156D01*
X125247Y223288D01*
X125209Y223366D01*
X125179Y223448D01*
X125111Y223567D01*
X125051Y223690D01*
X125000Y223760D01*
X124956Y223835D01*
X124868Y223940D01*
X124787Y224050D01*
X124725Y224110D01*
X124668Y224176D01*
X124563Y224264D01*
X124464Y224358D01*
X124391Y224406D01*
X124324Y224461D01*
X124205Y224528D01*
X124090Y224603D01*
X123967Y224662D01*
X123935Y224680D01*
X123912Y224687D01*
X123867Y224709D01*
X122708Y225189D01*
X119419Y228478D01*
X117639Y232775D01*
X117639Y234130D01*
X117635Y234180D01*
X117637Y234230D01*
X117615Y234402D01*
X117599Y234575D01*
X117586Y234623D01*
X117580Y234673D01*
X117527Y234838D01*
X117481Y235006D01*
X117459Y235051D01*
X117444Y235098D01*
X117363Y235252D01*
X117288Y235408D01*
X117258Y235449D01*
X117235Y235493D01*
X117128Y235630D01*
X117026Y235770D01*
X116990Y235805D01*
X116959Y235844D01*
X116829Y235960D01*
X116704Y236080D01*
X116662Y236107D01*
X116624Y236141D01*
X116476Y236231D01*
X116332Y236327D01*
X116286Y236347D01*
X116243Y236373D01*
X116081Y236435D01*
X115921Y236504D01*
X115873Y236515D01*
X115826Y236533D01*
X115655Y236566D01*
X115486Y236605D01*
X115436Y236608D01*
X115387Y236617D01*
X115140Y236629D01*
X99946Y236629D01*
X99760Y236613D01*
X99574Y236601D01*
X99538Y236593D01*
X99501Y236589D01*
X99321Y236540D01*
X99140Y236496D01*
X99106Y236481D01*
X99070Y236471D01*
X98902Y236390D01*
X98732Y236314D01*
X98701Y236294D01*
X98668Y236278D01*
X98516Y236168D01*
X98362Y236063D01*
X98325Y236030D01*
X98306Y236016D01*
X98280Y235989D01*
X98179Y235897D01*
X96574Y234292D01*
X92308Y232525D01*
X87692Y232525D01*
X83426Y234292D01*
X81821Y235897D01*
X81678Y236017D01*
X81538Y236141D01*
X81507Y236160D01*
X81478Y236184D01*
X81316Y236276D01*
X81157Y236373D01*
X81122Y236386D01*
X81090Y236404D01*
X80914Y236466D01*
X80740Y236533D01*
X80704Y236540D01*
X80669Y236553D01*
X80484Y236582D01*
X80301Y236617D01*
X80251Y236620D01*
X80228Y236623D01*
X80191Y236622D01*
X80054Y236629D01*
X57078Y236629D01*
X54500Y237697D01*
X54364Y237740D01*
X54230Y237791D01*
X54151Y237806D01*
X54074Y237830D01*
X53932Y237848D01*
X53791Y237875D01*
X53668Y237881D01*
X53631Y237886D01*
X53604Y237884D01*
X53544Y237887D01*
X47683Y237887D01*
X39999Y245571D01*
X39961Y245603D01*
X39927Y245640D01*
X39790Y245746D01*
X39657Y245857D01*
X39613Y245882D01*
X39573Y245912D01*
X39419Y245992D01*
X39268Y246078D01*
X39221Y246094D01*
X39177Y246117D01*
X39011Y246168D01*
X38847Y246226D01*
X38797Y246234D01*
X38750Y246248D01*
X38578Y246269D01*
X38406Y246297D01*
X38356Y246296D01*
X38306Y246301D01*
X38133Y246291D01*
X37959Y246288D01*
X37910Y246278D01*
X37860Y246275D01*
X37691Y246234D01*
X37521Y246199D01*
X37475Y246181D01*
X37426Y246169D01*
X37268Y246099D01*
X37106Y246035D01*
X37064Y246008D01*
X37018Y245988D01*
X36875Y245890D01*
X36727Y245798D01*
X36690Y245765D01*
X36648Y245737D01*
X36465Y245571D01*
X31282Y240387D01*
X29799Y240387D01*
X29799Y250000D01*
X29799Y259613D01*
X31282Y259613D01*
X36465Y254429D01*
X36503Y254397D01*
X36537Y254360D01*
X36675Y254254D01*
X36808Y254143D01*
X36851Y254118D01*
X36891Y254088D01*
X37045Y254008D01*
X37196Y253922D01*
X37243Y253906D01*
X37288Y253883D01*
X37453Y253832D01*
X37618Y253774D01*
X37667Y253766D01*
X37715Y253752D01*
X37887Y253731D01*
X38059Y253703D01*
X38109Y253704D01*
X38158Y253699D01*
X38332Y253709D01*
X38505Y253712D01*
X38554Y253722D01*
X38604Y253725D01*
X38773Y253766D01*
X38943Y253801D01*
X38990Y253819D01*
X39038Y253831D01*
X39197Y253901D01*
X39358Y253965D01*
X39401Y253992D01*
X39447Y254012D01*
X39590Y254110D01*
X39738Y254202D01*
X39775Y254235D01*
X39816Y254263D01*
X39999Y254429D01*
X47683Y262113D01*
X57717Y262113D01*
X64813Y255017D01*
X64813Y254130D01*
X64817Y254080D01*
X64815Y254030D01*
X64837Y253858D01*
X64853Y253685D01*
X64866Y253637D01*
X64872Y253587D01*
X64925Y253422D01*
X64971Y253254D01*
X64993Y253209D01*
X65008Y253162D01*
X65089Y253008D01*
X65164Y252852D01*
X65194Y252811D01*
X65217Y252767D01*
X65324Y252630D01*
X65426Y252490D01*
X65462Y252455D01*
X65493Y252416D01*
X65623Y252300D01*
X65748Y252180D01*
X65790Y252153D01*
X65828Y252119D01*
X65976Y252029D01*
X66120Y251933D01*
X66166Y251913D01*
X66209Y251887D01*
X66371Y251825D01*
X66531Y251756D01*
X66579Y251745D01*
X66626Y251727D01*
X66797Y251694D01*
X66966Y251655D01*
X67016Y251652D01*
X67065Y251643D01*
X67312Y251631D01*
X80054Y251631D01*
X80240Y251647D01*
X80426Y251659D01*
X80462Y251667D01*
X80499Y251671D01*
X80679Y251720D01*
X80860Y251764D01*
X80894Y251779D01*
X80930Y251789D01*
X81098Y251870D01*
X81268Y251946D01*
X81299Y251966D01*
X81332Y251982D01*
X81484Y252092D01*
X81638Y252197D01*
X81675Y252230D01*
X81694Y252244D01*
X81720Y252271D01*
X81821Y252363D01*
X83426Y253968D01*
X87692Y255735D01*
X92308Y255735D01*
X96574Y253968D01*
X98179Y252363D01*
X98322Y252243D01*
X98462Y252119D01*
X98493Y252100D01*
X98522Y252076D01*
X98684Y251984D01*
X98843Y251887D01*
X98878Y251874D01*
X98910Y251856D01*
X99086Y251794D01*
X99260Y251727D01*
X99296Y251720D01*
X99331Y251707D01*
X99516Y251678D01*
X99699Y251643D01*
X99749Y251640D01*
X99772Y251637D01*
X99809Y251638D01*
X99946Y251631D01*
X119508Y251631D01*
X119672Y251645D01*
X119836Y251652D01*
X119894Y251665D01*
X119953Y251671D01*
X120112Y251714D01*
X120272Y251750D01*
X120327Y251773D01*
X120384Y251789D01*
X120532Y251860D01*
X120683Y251924D01*
X120733Y251957D01*
X120787Y251982D01*
X120920Y252079D01*
X121057Y252168D01*
X121100Y252209D01*
X121149Y252244D01*
X121262Y252362D01*
X121382Y252475D01*
X121417Y252524D01*
X121458Y252566D01*
X121549Y252703D01*
X121646Y252835D01*
X121672Y252889D01*
X121705Y252938D01*
X121770Y253089D01*
X121843Y253237D01*
X121859Y253294D01*
X121882Y253349D01*
X121920Y253508D01*
X121964Y253666D01*
X121970Y253726D01*
X121984Y253784D01*
X121992Y253947D01*
X122008Y254111D01*
X122003Y254170D01*
X122006Y254230D01*
X121985Y254392D01*
X121971Y254556D01*
X121956Y254614D01*
X121948Y254673D01*
X121898Y254829D01*
X121856Y254988D01*
X121831Y255042D01*
X121812Y255098D01*
X121736Y255243D01*
X121666Y255392D01*
X121619Y255463D01*
X121603Y255493D01*
X121582Y255521D01*
X121530Y255599D01*
X121469Y255683D01*
X120813Y256972D01*
X120478Y258001D01*
X129330Y258001D01*
X138182Y258001D01*
X137847Y256972D01*
X137191Y255683D01*
X136340Y254513D01*
X135317Y253490D01*
X134147Y252639D01*
X132858Y251983D01*
X131603Y251575D01*
X131592Y251570D01*
X131581Y251568D01*
X131389Y251483D01*
X131192Y251399D01*
X131182Y251393D01*
X131172Y251389D01*
X130997Y251271D01*
X130819Y251154D01*
X130811Y251146D01*
X130801Y251139D01*
X130649Y250991D01*
X130496Y250845D01*
X130489Y250836D01*
X130481Y250828D01*
X130357Y250656D01*
X130232Y250484D01*
X130227Y250474D01*
X130221Y250465D01*
X130130Y250274D01*
X130038Y250082D01*
X130035Y250072D01*
X130030Y250061D01*
X129974Y249855D01*
X129917Y249652D01*
X129916Y249641D01*
X129913Y249630D01*
X129895Y249417D01*
X129876Y249207D01*
X129877Y249196D01*
X129876Y249185D01*
X129896Y248974D01*
X129914Y248762D01*
X129917Y248751D01*
X129918Y248740D01*
X129975Y248537D01*
X130031Y248331D01*
X130036Y248321D01*
X130039Y248310D01*
X130132Y248118D01*
X130223Y247928D01*
X130229Y247919D01*
X130234Y247908D01*
X130360Y247736D01*
X130483Y247565D01*
X130491Y247557D01*
X130498Y247548D01*
X130651Y247402D01*
X130804Y247254D01*
X130813Y247248D01*
X130822Y247240D01*
X130999Y247123D01*
X131175Y247006D01*
X131185Y247001D01*
X131195Y246995D01*
X131419Y246889D01*
X135952Y245011D01*
X139241Y241722D01*
X141021Y237425D01*
X141021Y232775D01*
X139241Y228478D01*
X135952Y225189D01*
X134793Y224709D01*
X134672Y224645D01*
X134547Y224591D01*
X134475Y224542D01*
X134398Y224502D01*
X134290Y224418D01*
X134176Y224342D01*
X134113Y224281D01*
X134045Y224228D01*
X133954Y224126D01*
X133855Y224030D01*
X133805Y223960D01*
X133747Y223895D01*
X133675Y223778D01*
X133596Y223667D01*
X133558Y223589D01*
X133513Y223515D01*
X133463Y223387D01*
X133404Y223263D01*
X133382Y223179D01*
X133350Y223099D01*
X133324Y222964D01*
X133288Y222832D01*
X133281Y222746D01*
X133264Y222660D01*
X133262Y222523D01*
X133250Y222387D01*
X133259Y222300D01*
X133257Y222214D01*
X133280Y222079D01*
X133293Y221942D01*
X133316Y221859D01*
X133330Y221773D01*
X133377Y221644D01*
X133413Y221512D01*
X133451Y221434D01*
X133481Y221352D01*
X133549Y221233D01*
X133609Y221111D01*
X133660Y221041D01*
X133703Y220965D01*
X133792Y220860D01*
X133873Y220750D01*
X133935Y220690D01*
X133992Y220624D01*
X134097Y220536D01*
X134196Y220442D01*
X134269Y220395D01*
X134336Y220339D01*
X134455Y220272D01*
X134570Y220197D01*
X134693Y220138D01*
X134725Y220120D01*
X134748Y220113D01*
X134793Y220091D01*
X135952Y219611D01*
X139241Y216322D01*
X141021Y212025D01*
X141021Y207375D01*
X139241Y203078D01*
X135952Y199789D01*
X134793Y199309D01*
X134672Y199245D01*
X134547Y199191D01*
X134475Y199142D01*
X134398Y199102D01*
X134290Y199018D01*
X134176Y198942D01*
X134113Y198881D01*
X134045Y198828D01*
X133954Y198726D01*
X133855Y198630D01*
X133805Y198560D01*
X133747Y198495D01*
X133675Y198378D01*
X133596Y198267D01*
X133558Y198189D01*
X133513Y198115D01*
X133463Y197987D01*
X133404Y197863D01*
X133382Y197779D01*
X133350Y197699D01*
X133324Y197564D01*
X133288Y197432D01*
X133281Y197346D01*
X133264Y197260D01*
X133262Y197123D01*
X133250Y196987D01*
X133259Y196900D01*
X133257Y196814D01*
X133280Y196679D01*
X133293Y196542D01*
X133316Y196459D01*
X133330Y196373D01*
X133377Y196244D01*
X133413Y196112D01*
X133451Y196034D01*
X133481Y195952D01*
X133549Y195833D01*
X133609Y195711D01*
X133660Y195641D01*
X133703Y195565D01*
X133792Y195460D01*
X133873Y195350D01*
X133935Y195290D01*
X133992Y195224D01*
X134097Y195136D01*
X134196Y195042D01*
X134269Y194995D01*
X134336Y194939D01*
X134455Y194872D01*
X134570Y194797D01*
X134693Y194738D01*
X134725Y194720D01*
X134748Y194713D01*
X134793Y194691D01*
X135952Y194211D01*
X139241Y190922D01*
X141021Y186625D01*
X141021Y181975D01*
X139241Y177678D01*
X135952Y174389D01*
X134793Y173909D01*
X134672Y173845D01*
X134547Y173791D01*
X134475Y173742D01*
X134398Y173702D01*
X134290Y173618D01*
X134176Y173542D01*
X134113Y173481D01*
X134045Y173428D01*
X133954Y173326D01*
X133855Y173230D01*
X133805Y173160D01*
X133747Y173095D01*
X133675Y172978D01*
X133596Y172867D01*
X133558Y172789D01*
X133513Y172715D01*
X133463Y172587D01*
X133404Y172463D01*
X133382Y172379D01*
X133350Y172299D01*
X133324Y172164D01*
X133288Y172032D01*
X133281Y171946D01*
X133264Y171860D01*
X133262Y171723D01*
X133250Y171587D01*
X133259Y171500D01*
X133257Y171414D01*
X133280Y171279D01*
X133293Y171142D01*
X133316Y171059D01*
X133330Y170973D01*
X133377Y170844D01*
X133413Y170712D01*
X133451Y170634D01*
X133481Y170552D01*
X133549Y170433D01*
X133609Y170311D01*
X133660Y170241D01*
X133703Y170165D01*
X133792Y170060D01*
X133873Y169950D01*
X133935Y169890D01*
X133992Y169824D01*
X134097Y169736D01*
X134196Y169642D01*
X134269Y169595D01*
X134336Y169539D01*
X134455Y169472D01*
X134570Y169397D01*
X134693Y169338D01*
X134725Y169320D01*
X134748Y169313D01*
X134793Y169291D01*
X135952Y168811D01*
X139241Y165522D01*
X141021Y161225D01*
X141021Y156575D01*
X139241Y152278D01*
X135952Y148989D01*
X134793Y148509D01*
X134672Y148445D01*
X134547Y148391D01*
X134475Y148342D01*
X134398Y148302D01*
X134290Y148218D01*
X134176Y148142D01*
X134113Y148081D01*
X134045Y148028D01*
X133954Y147926D01*
X133855Y147830D01*
X133805Y147760D01*
X133747Y147695D01*
X133675Y147578D01*
X133596Y147467D01*
X133558Y147389D01*
X133513Y147315D01*
X133463Y147187D01*
X133404Y147063D01*
X133382Y146979D01*
X133350Y146899D01*
X133324Y146764D01*
X133288Y146632D01*
X133281Y146546D01*
X133264Y146460D01*
X133262Y146323D01*
X133250Y146187D01*
X133259Y146100D01*
X133257Y146014D01*
X133280Y145879D01*
X133293Y145742D01*
X133316Y145659D01*
X133330Y145573D01*
X133377Y145444D01*
X133413Y145312D01*
X133451Y145234D01*
X133481Y145152D01*
X133549Y145033D01*
X133609Y144911D01*
X133660Y144841D01*
X133703Y144765D01*
X133792Y144660D01*
X133873Y144550D01*
X133935Y144490D01*
X133992Y144424D01*
X134097Y144336D01*
X134196Y144242D01*
X134269Y144195D01*
X134336Y144139D01*
X134455Y144072D01*
X134570Y143997D01*
X134693Y143938D01*
X134725Y143920D01*
X134748Y143913D01*
X134793Y143891D01*
X135952Y143411D01*
X139241Y140122D01*
X141021Y135825D01*
X141021Y131175D01*
X139241Y126878D01*
X135952Y123589D01*
X134793Y123109D01*
X134672Y123045D01*
X134547Y122991D01*
X134475Y122942D01*
X134398Y122902D01*
X134290Y122818D01*
X134176Y122742D01*
X134113Y122681D01*
X134045Y122628D01*
X133954Y122526D01*
X133855Y122430D01*
X133805Y122360D01*
X133747Y122295D01*
X133675Y122178D01*
X133596Y122067D01*
X133558Y121989D01*
X133513Y121915D01*
X133463Y121787D01*
X133404Y121663D01*
X133382Y121579D01*
X133350Y121499D01*
X133324Y121364D01*
X133288Y121232D01*
X133281Y121146D01*
X133264Y121060D01*
X133262Y120923D01*
X133250Y120787D01*
X133259Y120700D01*
X133257Y120614D01*
X133280Y120479D01*
X133293Y120342D01*
X133316Y120259D01*
X133330Y120173D01*
X133377Y120044D01*
X133413Y119912D01*
X133451Y119834D01*
X133481Y119752D01*
X133549Y119633D01*
X133609Y119511D01*
X133660Y119441D01*
X133703Y119365D01*
X133792Y119260D01*
X133873Y119150D01*
X133935Y119090D01*
X133992Y119024D01*
X134097Y118936D01*
X134196Y118842D01*
X134269Y118795D01*
X134336Y118739D01*
X134455Y118672D01*
X134570Y118597D01*
X134693Y118538D01*
X134725Y118520D01*
X134748Y118513D01*
X134793Y118491D01*
X135952Y118011D01*
X139241Y114722D01*
X141021Y110425D01*
X141021Y108052D01*
X141037Y107866D01*
X141049Y107680D01*
X141057Y107644D01*
X141061Y107607D01*
X141110Y107427D01*
X141154Y107246D01*
X141169Y107212D01*
X141179Y107177D01*
X141260Y107008D01*
X141336Y106838D01*
X141356Y106807D01*
X141372Y106774D01*
X141482Y106623D01*
X141587Y106468D01*
X141621Y106431D01*
X141634Y106412D01*
X141661Y106386D01*
X141753Y106285D01*
X149805Y98233D01*
X149948Y98113D01*
X150088Y97989D01*
X150119Y97970D01*
X150148Y97946D01*
X150310Y97854D01*
X150469Y97757D01*
X150504Y97744D01*
X150536Y97726D01*
X150712Y97664D01*
X150886Y97597D01*
X150923Y97590D01*
X150957Y97577D01*
X151142Y97548D01*
X151325Y97513D01*
X151375Y97510D01*
X151399Y97507D01*
X151436Y97508D01*
X151572Y97501D01*
X196102Y97501D01*
X196239Y97513D01*
X196376Y97516D01*
X196461Y97533D01*
X196547Y97541D01*
X196679Y97577D01*
X196814Y97604D01*
X196895Y97636D01*
X196978Y97659D01*
X197102Y97718D01*
X197229Y97769D01*
X197303Y97815D01*
X197381Y97852D01*
X197492Y97933D01*
X197608Y98005D01*
X197672Y98063D01*
X197743Y98114D01*
X197838Y98213D01*
X197939Y98305D01*
X197992Y98374D01*
X198052Y98436D01*
X198128Y98551D01*
X198212Y98659D01*
X198251Y98736D01*
X198299Y98808D01*
X198354Y98934D01*
X198417Y99056D01*
X198442Y99139D01*
X198476Y99219D01*
X198507Y99352D01*
X198548Y99483D01*
X198558Y99569D01*
X198577Y99654D01*
X198584Y99790D01*
X198601Y99927D01*
X198595Y100013D01*
X198600Y100100D01*
X198582Y100236D01*
X198574Y100373D01*
X198553Y100457D01*
X198542Y100543D01*
X198500Y100673D01*
X198468Y100807D01*
X198433Y100886D01*
X198406Y100968D01*
X198342Y101089D01*
X198286Y101215D01*
X198239Y101285D01*
X196379Y105775D01*
X196379Y110425D01*
X198159Y114722D01*
X201448Y118011D01*
X202607Y118491D01*
X202728Y118555D01*
X202853Y118609D01*
X202925Y118658D01*
X203002Y118698D01*
X203110Y118782D01*
X203224Y118858D01*
X203287Y118919D01*
X203355Y118972D01*
X203446Y119074D01*
X203545Y119170D01*
X203595Y119240D01*
X203653Y119305D01*
X203725Y119422D01*
X203804Y119533D01*
X203842Y119611D01*
X203887Y119685D01*
X203937Y119813D01*
X203996Y119937D01*
X204018Y120021D01*
X204050Y120101D01*
X204076Y120236D01*
X204112Y120368D01*
X204119Y120454D01*
X204136Y120540D01*
X204138Y120677D01*
X204150Y120813D01*
X204141Y120900D01*
X204143Y120986D01*
X204120Y121121D01*
X204107Y121258D01*
X204084Y121341D01*
X204070Y121427D01*
X204023Y121556D01*
X203987Y121688D01*
X203949Y121766D01*
X203919Y121848D01*
X203851Y121967D01*
X203791Y122089D01*
X203740Y122159D01*
X203697Y122235D01*
X203608Y122340D01*
X203527Y122450D01*
X203465Y122510D01*
X203408Y122576D01*
X203303Y122664D01*
X203204Y122758D01*
X203131Y122805D01*
X203064Y122861D01*
X202945Y122928D01*
X202830Y123003D01*
X202707Y123062D01*
X202675Y123080D01*
X202652Y123087D01*
X202607Y123109D01*
X201448Y123589D01*
X198159Y126878D01*
X196379Y131175D01*
X196379Y135825D01*
X198159Y140122D01*
X201448Y143411D01*
X202607Y143891D01*
X202728Y143955D01*
X202853Y144009D01*
X202925Y144058D01*
X203002Y144098D01*
X203110Y144182D01*
X203224Y144258D01*
X203287Y144319D01*
X203355Y144372D01*
X203446Y144474D01*
X203545Y144570D01*
X203595Y144640D01*
X203653Y144705D01*
X203725Y144822D01*
X203804Y144933D01*
X203842Y145011D01*
X203887Y145085D01*
X203937Y145213D01*
X203996Y145337D01*
X204018Y145421D01*
X204050Y145501D01*
X204076Y145636D01*
X204112Y145768D01*
X204119Y145854D01*
X204136Y145940D01*
X204138Y146077D01*
X204150Y146213D01*
X204141Y146300D01*
X204143Y146386D01*
X204120Y146521D01*
X204107Y146658D01*
X204084Y146741D01*
X204070Y146827D01*
X204023Y146956D01*
X203987Y147088D01*
X203949Y147166D01*
X203919Y147248D01*
X203851Y147367D01*
X203791Y147489D01*
X203740Y147559D01*
X203697Y147635D01*
X203608Y147740D01*
X203527Y147850D01*
X203465Y147910D01*
X203408Y147976D01*
X203303Y148064D01*
X203204Y148158D01*
X203131Y148205D01*
X203064Y148261D01*
X202945Y148328D01*
X202830Y148403D01*
X202707Y148462D01*
X202675Y148480D01*
X202652Y148487D01*
X202607Y148509D01*
X201448Y148989D01*
X198159Y152278D01*
X196379Y156575D01*
X196379Y161225D01*
X198159Y165522D01*
X201448Y168811D01*
X202607Y169291D01*
X202728Y169355D01*
X202853Y169409D01*
X202925Y169458D01*
X203002Y169498D01*
X203110Y169582D01*
X203224Y169658D01*
X203287Y169719D01*
X203355Y169772D01*
X203446Y169874D01*
X203545Y169970D01*
X203595Y170040D01*
X203653Y170105D01*
X203725Y170222D01*
X203804Y170333D01*
X203842Y170411D01*
X203887Y170485D01*
X203937Y170613D01*
X203996Y170737D01*
X204018Y170821D01*
X204050Y170901D01*
X204076Y171036D01*
X204112Y171168D01*
X204119Y171254D01*
X204136Y171340D01*
X204138Y171477D01*
X204150Y171613D01*
X204141Y171700D01*
X204143Y171786D01*
X204120Y171921D01*
X204107Y172058D01*
X204084Y172141D01*
X204070Y172227D01*
X204023Y172356D01*
X203987Y172488D01*
X203949Y172566D01*
X203919Y172648D01*
X203851Y172767D01*
X203791Y172889D01*
X203740Y172959D01*
X203697Y173035D01*
X203608Y173140D01*
X203527Y173250D01*
X203465Y173310D01*
X203408Y173376D01*
X203303Y173464D01*
X203204Y173558D01*
X203131Y173605D01*
X203064Y173661D01*
X202945Y173728D01*
X202830Y173803D01*
X202707Y173862D01*
X202675Y173880D01*
X202652Y173887D01*
X202607Y173909D01*
X201448Y174389D01*
X198159Y177678D01*
X196379Y181975D01*
X196379Y186625D01*
X198159Y190922D01*
X201448Y194211D01*
X202607Y194691D01*
X202728Y194755D01*
X202853Y194809D01*
X202925Y194858D01*
X203002Y194898D01*
X203110Y194982D01*
X203224Y195058D01*
X203287Y195119D01*
X203355Y195172D01*
X203446Y195274D01*
X203545Y195370D01*
X203595Y195440D01*
X203653Y195505D01*
X203725Y195622D01*
X203804Y195733D01*
X203842Y195811D01*
X203887Y195885D01*
X203937Y196013D01*
X203996Y196137D01*
X204018Y196221D01*
X204050Y196301D01*
X204076Y196436D01*
X204112Y196568D01*
X204119Y196654D01*
X204136Y196740D01*
X204138Y196877D01*
X204150Y197013D01*
X204141Y197100D01*
X204143Y197186D01*
X204120Y197321D01*
X204107Y197458D01*
X204084Y197541D01*
X204070Y197627D01*
X204023Y197756D01*
X203987Y197888D01*
X203949Y197966D01*
X203919Y198048D01*
X203851Y198167D01*
X203791Y198289D01*
X203740Y198359D01*
X203697Y198435D01*
X203608Y198540D01*
X203527Y198650D01*
X203465Y198710D01*
X203408Y198776D01*
X203303Y198864D01*
X203204Y198958D01*
X203131Y199005D01*
X203064Y199061D01*
X202945Y199128D01*
X202830Y199203D01*
X202707Y199262D01*
X202675Y199280D01*
X202652Y199287D01*
X202607Y199309D01*
X201448Y199789D01*
X198159Y203078D01*
X196379Y207375D01*
X196379Y212025D01*
X198159Y216322D01*
X201448Y219611D01*
X202607Y220091D01*
X202728Y220155D01*
X202853Y220209D01*
X202925Y220258D01*
X203002Y220298D01*
X203110Y220382D01*
X203224Y220458D01*
X203287Y220519D01*
X203355Y220572D01*
X203446Y220674D01*
X203545Y220770D01*
X203595Y220840D01*
X203653Y220905D01*
X203725Y221022D01*
X203804Y221133D01*
X203842Y221211D01*
X203887Y221285D01*
X203937Y221413D01*
X203996Y221537D01*
X204018Y221621D01*
X204050Y221701D01*
X204076Y221836D01*
X204112Y221968D01*
X204119Y222054D01*
X204136Y222140D01*
X204138Y222277D01*
X204150Y222413D01*
X204141Y222500D01*
X204143Y222586D01*
X204120Y222721D01*
X204107Y222858D01*
X204084Y222941D01*
X204070Y223027D01*
X204023Y223156D01*
X203987Y223288D01*
X203949Y223366D01*
X203919Y223448D01*
X203851Y223567D01*
X203791Y223689D01*
X203740Y223759D01*
X203697Y223835D01*
X203608Y223940D01*
X203527Y224050D01*
X203465Y224110D01*
X203408Y224176D01*
X203303Y224264D01*
X203204Y224358D01*
X203131Y224405D01*
X203064Y224461D01*
X202945Y224528D01*
X202830Y224603D01*
X202707Y224662D01*
X202675Y224680D01*
X202652Y224687D01*
X202607Y224709D01*
X201448Y225189D01*
X198159Y228478D01*
X196379Y232775D01*
X196379Y237425D01*
X198159Y241722D01*
X199837Y243400D01*
X199957Y243544D01*
X200081Y243683D01*
X200100Y243715D01*
X200124Y243743D01*
X200216Y243905D01*
X200313Y244065D01*
X200326Y244099D01*
X200344Y244132D01*
X200406Y244308D01*
X200473Y244482D01*
X200480Y244518D01*
X200493Y244553D01*
X200522Y244737D01*
X200557Y244921D01*
X200560Y244971D01*
X200563Y244994D01*
X200562Y245031D01*
X200569Y245168D01*
X200569Y250432D01*
X200553Y250618D01*
X200541Y250804D01*
X200533Y250840D01*
X200529Y250877D01*
X200480Y251058D01*
X200436Y251238D01*
X200421Y251272D01*
X200411Y251308D01*
X200330Y251476D01*
X200254Y251647D01*
X200234Y251677D01*
X200218Y251711D01*
X200108Y251862D01*
X200003Y252016D01*
X199969Y252054D01*
X199956Y252073D01*
X199929Y252098D01*
X199837Y252200D01*
X199770Y252267D01*
X199643Y252373D01*
X199634Y252382D01*
X199626Y252387D01*
X199487Y252511D01*
X199455Y252530D01*
X199427Y252554D01*
X199265Y252646D01*
X199105Y252743D01*
X199071Y252756D01*
X199038Y252774D01*
X198862Y252836D01*
X198688Y252903D01*
X198652Y252910D01*
X198617Y252923D01*
X198433Y252952D01*
X198249Y252987D01*
X198199Y252990D01*
X198176Y252993D01*
X198139Y252992D01*
X198002Y252999D01*
X186578Y252999D01*
X183821Y254141D01*
X167926Y270036D01*
X166784Y272793D01*
X166784Y285900D01*
X166780Y285950D01*
X166782Y286000D01*
X166760Y286172D01*
X166744Y286345D01*
X166731Y286393D01*
X166725Y286443D01*
X166672Y286608D01*
X166626Y286776D01*
X166604Y286821D01*
X166589Y286868D01*
X166508Y287022D01*
X166433Y287178D01*
X166403Y287219D01*
X166380Y287263D01*
X166273Y287400D01*
X166171Y287540D01*
X166135Y287575D01*
X166104Y287614D01*
X165974Y287730D01*
X165849Y287850D01*
X165807Y287877D01*
X165769Y287911D01*
X165621Y288001D01*
X165477Y288097D01*
X165431Y288117D01*
X165388Y288143D01*
X165226Y288205D01*
X165066Y288274D01*
X165018Y288285D01*
X164971Y288303D01*
X164800Y288336D01*
X164631Y288375D01*
X164581Y288378D01*
X164532Y288387D01*
X164285Y288399D01*
X143520Y288399D01*
X143470Y288395D01*
X143420Y288397D01*
X143248Y288375D01*
X143075Y288359D01*
X143027Y288346D01*
X142977Y288340D01*
X142812Y288287D01*
X142644Y288241D01*
X142599Y288219D01*
X142552Y288204D01*
X142398Y288123D01*
X142242Y288048D01*
X142201Y288018D01*
X142157Y287995D01*
X142020Y287888D01*
X141880Y287786D01*
X141845Y287750D01*
X141806Y287719D01*
X141690Y287589D01*
X141570Y287464D01*
X141543Y287422D01*
X141509Y287384D01*
X141419Y287236D01*
X141323Y287092D01*
X141303Y287046D01*
X141277Y287003D01*
X141215Y286841D01*
X141146Y286681D01*
X141135Y286633D01*
X141117Y286586D01*
X141084Y286415D01*
X141045Y286246D01*
X141042Y286196D01*
X141033Y286147D01*
X141021Y285900D01*
X141021Y283575D01*
X139241Y279278D01*
X135952Y275989D01*
X131419Y274111D01*
X131409Y274106D01*
X131398Y274102D01*
X131211Y274002D01*
X131023Y273904D01*
X131014Y273897D01*
X131004Y273892D01*
X130837Y273760D01*
X130670Y273630D01*
X130663Y273621D01*
X130654Y273614D01*
X130513Y273454D01*
X130372Y273297D01*
X130366Y273287D01*
X130359Y273279D01*
X130249Y273096D01*
X130138Y272917D01*
X130134Y272906D01*
X130128Y272896D01*
X130053Y272698D01*
X129975Y272501D01*
X129973Y272489D01*
X129969Y272479D01*
X129930Y272271D01*
X129889Y272062D01*
X129889Y272051D01*
X129887Y272040D01*
X129886Y271827D01*
X129883Y271616D01*
X129885Y271604D01*
X129885Y271593D01*
X129921Y271382D01*
X129956Y271175D01*
X129960Y271164D01*
X129962Y271153D01*
X130035Y270952D01*
X130106Y270754D01*
X130112Y270744D01*
X130116Y270734D01*
X130223Y270551D01*
X130329Y270367D01*
X130336Y270358D01*
X130342Y270349D01*
X130480Y270188D01*
X130617Y270026D01*
X130626Y270019D01*
X130633Y270010D01*
X130799Y269876D01*
X130961Y269741D01*
X130971Y269736D01*
X130980Y269728D01*
X131168Y269625D01*
X131351Y269522D01*
X131361Y269519D01*
X131371Y269513D01*
X131603Y269425D01*
X132858Y269017D01*
X134147Y268361D01*
X135317Y267510D01*
X136340Y266487D01*
X137191Y265317D01*
X137847Y264028D01*
X138182Y262999D01*
X129330Y262999D01*
X120478Y262999D01*
X120813Y264028D01*
X121469Y265317D01*
X122320Y266487D01*
X123343Y267510D01*
X124513Y268361D01*
X125802Y269017D01*
X127057Y269425D01*
X127068Y269430D01*
X127079Y269432D01*
X127272Y269517D01*
X127468Y269601D01*
X127478Y269607D01*
X127488Y269611D01*
X127664Y269730D01*
X127841Y269846D01*
X127849Y269854D01*
X127859Y269861D01*
X128012Y270010D01*
X128164Y270155D01*
X128171Y270164D01*
X128179Y270172D01*
X128303Y270345D01*
X128428Y270516D01*
X128433Y270526D01*
X128439Y270535D01*
X128530Y270727D01*
X128622Y270918D01*
X128626Y270928D01*
X128630Y270939D01*
X128686Y271145D01*
X128743Y271348D01*
X128744Y271359D01*
X128747Y271370D01*
X128765Y271583D01*
X128784Y271793D01*
X128783Y271804D01*
X128784Y271815D01*
X128764Y272026D01*
X128746Y272238D01*
X128743Y272249D01*
X128742Y272260D01*
X128685Y272462D01*
X128629Y272669D01*
X128624Y272679D01*
X128621Y272690D01*
X128529Y272881D01*
X128437Y273072D01*
X128431Y273081D01*
X128426Y273092D01*
X128301Y273262D01*
X128177Y273435D01*
X128169Y273443D01*
X128162Y273452D01*
X128010Y273597D01*
X127856Y273746D01*
X127847Y273752D01*
X127838Y273760D01*
X127662Y273876D01*
X127485Y273994D01*
X127475Y273999D01*
X127465Y274005D01*
X127241Y274111D01*
X122708Y275989D01*
X119419Y279278D01*
X117639Y283575D01*
X117639Y285948D01*
X117623Y286134D01*
X117611Y286320D01*
X117603Y286356D01*
X117599Y286393D01*
X117550Y286573D01*
X117506Y286754D01*
X117491Y286788D01*
X117481Y286823D01*
X117400Y286992D01*
X117324Y287162D01*
X117304Y287193D01*
X117288Y287226D01*
X117178Y287377D01*
X117073Y287532D01*
X117039Y287569D01*
X117026Y287588D01*
X116999Y287614D01*
X116907Y287715D01*
X100793Y303829D01*
X100755Y303861D01*
X100721Y303898D01*
X100584Y304004D01*
X100451Y304115D01*
X100407Y304140D01*
X100367Y304171D01*
X100213Y304250D01*
X100062Y304336D01*
X100015Y304353D01*
X99971Y304376D01*
X99805Y304427D01*
X99641Y304484D01*
X99591Y304492D01*
X99544Y304507D01*
X99371Y304527D01*
X99200Y304555D01*
X99150Y304554D01*
X99100Y304560D01*
X98927Y304549D01*
X98753Y304546D01*
X98704Y304536D01*
X98654Y304533D01*
X98485Y304492D01*
X98315Y304458D01*
X98269Y304439D01*
X98220Y304427D01*
X98062Y304357D01*
X97900Y304293D01*
X97858Y304266D01*
X97812Y304246D01*
X97668Y304149D01*
X97521Y304057D01*
X97484Y304023D01*
X97442Y303995D01*
X97259Y303829D01*
X96817Y303387D01*
X86783Y303387D01*
X79099Y311071D01*
X79061Y311103D01*
X79027Y311140D01*
X78890Y311246D01*
X78757Y311357D01*
X78713Y311382D01*
X78673Y311412D01*
X78519Y311492D01*
X78368Y311578D01*
X78321Y311594D01*
X78277Y311617D01*
X78111Y311668D01*
X77947Y311726D01*
X77897Y311734D01*
X77850Y311748D01*
X77678Y311769D01*
X77506Y311797D01*
X77456Y311796D01*
X77406Y311801D01*
X77233Y311791D01*
X77059Y311788D01*
X77010Y311778D01*
X76960Y311775D01*
X76791Y311734D01*
X76621Y311699D01*
X76575Y311681D01*
X76526Y311669D01*
X76368Y311599D01*
X76206Y311535D01*
X76164Y311508D01*
X76118Y311488D01*
X75975Y311390D01*
X75827Y311298D01*
X75790Y311265D01*
X75748Y311237D01*
X75565Y311071D01*
X70382Y305887D01*
X68899Y305887D01*
X68899Y315500D01*
X68899Y325113D01*
X70382Y325113D01*
X75565Y319929D01*
X75603Y319897D01*
X75637Y319860D01*
X75775Y319754D01*
X75908Y319643D01*
X75951Y319618D01*
X75991Y319588D01*
X76145Y319508D01*
X76296Y319422D01*
X76343Y319406D01*
X76388Y319383D01*
X76553Y319332D01*
X76718Y319274D01*
X76767Y319266D01*
X76815Y319252D01*
X76987Y319231D01*
X77159Y319203D01*
X77209Y319204D01*
X77258Y319199D01*
X77432Y319209D01*
X77605Y319212D01*
X77654Y319222D01*
X77704Y319225D01*
X77873Y319266D01*
X78043Y319301D01*
X78090Y319319D01*
X78138Y319331D01*
X78297Y319401D01*
X78458Y319465D01*
X78501Y319492D01*
X78547Y319512D01*
X78690Y319610D01*
X78838Y319702D01*
X78875Y319735D01*
X78916Y319763D01*
X79099Y319929D01*
X86783Y327613D01*
X96817Y327613D01*
X101224Y323206D01*
X101334Y323114D01*
X101438Y323015D01*
X101505Y322971D01*
X101567Y322919D01*
X101691Y322849D01*
X101811Y322770D01*
X101923Y322717D01*
X101955Y322699D01*
X101981Y322690D01*
X102035Y322664D01*
X103979Y321859D01*
X113405Y312433D01*
X113477Y312373D01*
X113542Y312306D01*
X113648Y312230D01*
X113748Y312146D01*
X113829Y312100D01*
X113905Y312046D01*
X114023Y311990D01*
X114136Y311926D01*
X114224Y311895D01*
X114309Y311855D01*
X114435Y311821D01*
X114557Y311778D01*
X114650Y311763D01*
X114740Y311738D01*
X114870Y311727D01*
X114999Y311707D01*
X115092Y311709D01*
X115185Y311701D01*
X115315Y311713D01*
X115445Y311716D01*
X115537Y311734D01*
X115630Y311743D01*
X115755Y311778D01*
X115883Y311804D01*
X115970Y311839D01*
X116060Y311864D01*
X116177Y311921D01*
X116298Y311969D01*
X116378Y312018D01*
X116462Y312059D01*
X116567Y312136D01*
X116677Y312205D01*
X116747Y312268D01*
X116822Y312323D01*
X116912Y312417D01*
X117009Y312505D01*
X117066Y312579D01*
X117130Y312647D01*
X117201Y312755D01*
X117281Y312859D01*
X117324Y312942D01*
X117375Y313020D01*
X117481Y313244D01*
X119419Y317922D01*
X122708Y321211D01*
X123867Y321691D01*
X123988Y321754D01*
X124113Y321809D01*
X124185Y321858D01*
X124262Y321898D01*
X124371Y321982D01*
X124484Y322058D01*
X124546Y322119D01*
X124615Y322172D01*
X124706Y322274D01*
X124805Y322370D01*
X124855Y322440D01*
X124913Y322505D01*
X124985Y322622D01*
X125065Y322733D01*
X125102Y322812D01*
X125147Y322886D01*
X125197Y323013D01*
X125256Y323137D01*
X125278Y323221D01*
X125310Y323302D01*
X125336Y323436D01*
X125372Y323568D01*
X125379Y323655D01*
X125396Y323740D01*
X125398Y323877D01*
X125410Y324013D01*
X125401Y324100D01*
X125403Y324187D01*
X125380Y324322D01*
X125367Y324458D01*
X125344Y324541D01*
X125330Y324627D01*
X125284Y324756D01*
X125247Y324888D01*
X125209Y324966D01*
X125179Y325048D01*
X125111Y325167D01*
X125051Y325290D01*
X125000Y325360D01*
X124956Y325435D01*
X124868Y325540D01*
X124787Y325650D01*
X124725Y325710D01*
X124668Y325776D01*
X124563Y325864D01*
X124464Y325958D01*
X124391Y326006D01*
X124324Y326061D01*
X124205Y326128D01*
X124090Y326203D01*
X123967Y326262D01*
X123935Y326280D01*
X123912Y326287D01*
X123867Y326309D01*
X122708Y326789D01*
X119419Y330078D01*
X117639Y334375D01*
X117639Y339025D01*
X119419Y343322D01*
X122708Y346611D01*
X123867Y347091D01*
X123988Y347154D01*
X124113Y347209D01*
X124185Y347258D01*
X124262Y347298D01*
X124371Y347382D01*
X124484Y347458D01*
X124546Y347519D01*
X124615Y347572D01*
X124706Y347674D01*
X124805Y347770D01*
X124855Y347840D01*
X124913Y347905D01*
X124985Y348022D01*
X125065Y348133D01*
X125102Y348212D01*
X125147Y348286D01*
X125197Y348413D01*
X125256Y348537D01*
X125278Y348621D01*
X125310Y348702D01*
X125336Y348836D01*
X125372Y348968D01*
X125379Y349055D01*
X125396Y349140D01*
X125398Y349277D01*
X125410Y349413D01*
X125401Y349500D01*
X125403Y349587D01*
X125380Y349722D01*
X125367Y349858D01*
X125344Y349941D01*
X125330Y350027D01*
X125284Y350156D01*
X125247Y350288D01*
X125209Y350366D01*
X125179Y350448D01*
X125111Y350567D01*
X125051Y350690D01*
X125000Y350760D01*
X124956Y350835D01*
X124868Y350940D01*
X124787Y351050D01*
X124725Y351110D01*
X124668Y351176D01*
X124563Y351264D01*
X124464Y351358D01*
X124391Y351406D01*
X124324Y351461D01*
X124205Y351528D01*
X124090Y351603D01*
X123967Y351662D01*
X123935Y351680D01*
X123912Y351687D01*
X123867Y351709D01*
X122708Y352189D01*
X119419Y355478D01*
X117639Y359775D01*
X117639Y364425D01*
X119419Y368722D01*
X122708Y372011D01*
X123867Y372491D01*
X123988Y372554D01*
X124113Y372609D01*
X124185Y372658D01*
X124262Y372698D01*
X124371Y372782D01*
X124484Y372858D01*
X124546Y372919D01*
X124615Y372972D01*
X124706Y373074D01*
X124805Y373170D01*
X124855Y373240D01*
X124913Y373305D01*
X124985Y373422D01*
X125065Y373533D01*
X125102Y373612D01*
X125147Y373686D01*
X125197Y373813D01*
X125256Y373937D01*
X125278Y374021D01*
X125310Y374102D01*
X125336Y374236D01*
X125372Y374368D01*
X125379Y374455D01*
X125396Y374540D01*
X125398Y374677D01*
X125410Y374813D01*
X125401Y374900D01*
X125403Y374987D01*
X125380Y375122D01*
X125367Y375258D01*
X125344Y375341D01*
X125330Y375427D01*
X125284Y375556D01*
X125247Y375688D01*
X125209Y375766D01*
X125179Y375848D01*
X125111Y375967D01*
X125051Y376090D01*
X125000Y376160D01*
X124956Y376235D01*
X124868Y376340D01*
X124787Y376450D01*
X124725Y376510D01*
X124668Y376576D01*
X124563Y376664D01*
X124464Y376758D01*
X124391Y376806D01*
X124324Y376861D01*
X124205Y376928D01*
X124090Y377003D01*
X123967Y377062D01*
X123935Y377080D01*
X123912Y377087D01*
X123867Y377109D01*
X122708Y377589D01*
X121030Y379267D01*
X120886Y379387D01*
X120747Y379511D01*
X120715Y379530D01*
X120687Y379554D01*
X120524Y379646D01*
X120365Y379743D01*
X120331Y379756D01*
X120298Y379774D01*
X120122Y379836D01*
X119948Y379903D01*
X119912Y379910D01*
X119877Y379923D01*
X119693Y379952D01*
X119510Y379987D01*
X119459Y379990D01*
X119436Y379993D01*
X119399Y379992D01*
X119262Y379999D01*
X111642Y379999D01*
X111456Y379983D01*
X111270Y379971D01*
X111234Y379963D01*
X111197Y379959D01*
X111017Y379910D01*
X110836Y379866D01*
X110802Y379851D01*
X110767Y379841D01*
X110598Y379760D01*
X110428Y379684D01*
X110397Y379664D01*
X110364Y379648D01*
X110213Y379538D01*
X110058Y379433D01*
X110021Y379399D01*
X110002Y379386D01*
X109976Y379359D01*
X109875Y379267D01*
X91549Y360941D01*
X88792Y359799D01*
X68810Y359799D01*
X68624Y359783D01*
X68438Y359771D01*
X68402Y359763D01*
X68365Y359759D01*
X68185Y359710D01*
X68004Y359666D01*
X67970Y359651D01*
X67934Y359641D01*
X67765Y359560D01*
X67595Y359484D01*
X67565Y359464D01*
X67531Y359448D01*
X67380Y359338D01*
X67226Y359233D01*
X67189Y359200D01*
X67170Y359186D01*
X67144Y359159D01*
X67043Y359067D01*
X64644Y356668D01*
X60035Y354759D01*
X39965Y354759D01*
X35356Y356668D01*
X31828Y360196D01*
X29919Y364805D01*
X29919Y369795D01*
X31828Y374404D01*
X35657Y378233D01*
X35690Y378271D01*
X35727Y378305D01*
X35833Y378442D01*
X35944Y378576D01*
X35968Y378619D01*
X35999Y378659D01*
X36079Y378813D01*
X36165Y378964D01*
X36181Y379011D01*
X36204Y379056D01*
X36255Y379221D01*
X36313Y379385D01*
X36321Y379435D01*
X36335Y379483D01*
X36356Y379655D01*
X36383Y379826D01*
X36382Y379877D01*
X36388Y379926D01*
X36378Y380100D01*
X36375Y380273D01*
X36365Y380322D01*
X36362Y380372D01*
X36321Y380541D01*
X36286Y380711D01*
X36268Y380757D01*
X36256Y380806D01*
X36186Y380965D01*
X36121Y381126D01*
X36095Y381169D01*
X36075Y381214D01*
X35977Y381358D01*
X35885Y381505D01*
X35852Y381542D01*
X35824Y381584D01*
X35657Y381767D01*
X31828Y385596D01*
X29919Y390205D01*
X29919Y395195D01*
X31828Y399804D01*
X35356Y403332D01*
X39965Y405241D01*
X60035Y405241D01*
X64644Y403332D01*
X66917Y401059D01*
X66955Y401027D01*
X66989Y400990D01*
X67126Y400883D01*
X67259Y400772D01*
X67303Y400748D01*
X67343Y400717D01*
X67497Y400637D01*
X67648Y400552D01*
X67695Y400535D01*
X67739Y400512D01*
X67905Y400461D01*
X68069Y400403D01*
X68119Y400395D01*
X68166Y400381D01*
X68338Y400360D01*
X68510Y400333D01*
X68560Y400334D01*
X68610Y400328D01*
X68783Y400338D01*
X68957Y400342D01*
X69006Y400352D01*
X69056Y400355D01*
X69225Y400396D01*
X69395Y400430D01*
X69441Y400448D01*
X69490Y400460D01*
X69649Y400531D01*
X69810Y400595D01*
X69852Y400621D01*
X69898Y400641D01*
X70042Y400739D01*
X70189Y400831D01*
X70226Y400864D01*
X70268Y400893D01*
X70451Y401059D01*
X88651Y419259D01*
X91408Y420401D01*
X119262Y420401D01*
X119448Y420417D01*
X119634Y420429D01*
X119670Y420437D01*
X119707Y420441D01*
X119888Y420490D01*
X120068Y420534D01*
X120102Y420549D01*
X120138Y420559D01*
X120306Y420640D01*
X120477Y420716D01*
X120507Y420736D01*
X120541Y420752D01*
X120692Y420862D01*
X120846Y420967D01*
X120884Y421001D01*
X120903Y421014D01*
X120928Y421041D01*
X121030Y421133D01*
X122438Y422541D01*
X122497Y422612D01*
X122565Y422678D01*
X122640Y422784D01*
X122724Y422884D01*
X122770Y422965D01*
X122824Y423041D01*
X122880Y423159D01*
X122945Y423272D01*
X122976Y423360D01*
X123016Y423445D01*
X123050Y423570D01*
X123093Y423693D01*
X123108Y423786D01*
X123132Y423876D01*
X123143Y424005D01*
X123164Y424134D01*
X123162Y424228D01*
X123170Y424321D01*
X123157Y424451D01*
X123155Y424581D01*
X123136Y424672D01*
X123127Y424766D01*
X123092Y424891D01*
X123066Y425019D01*
X123032Y425106D01*
X123007Y425196D01*
X122950Y425313D01*
X122901Y425434D01*
X122852Y425513D01*
X122811Y425597D01*
X122734Y425703D01*
X122665Y425813D01*
X122603Y425882D01*
X122547Y425958D01*
X122453Y426048D01*
X122366Y426144D01*
X122291Y426201D01*
X122224Y426266D01*
X122115Y426337D01*
X122012Y426417D01*
X121928Y426460D01*
X121850Y426511D01*
X121627Y426617D01*
X119807Y427371D01*
X118401Y428777D01*
X117639Y430615D01*
X117639Y438348D01*
X117623Y438534D01*
X117611Y438720D01*
X117603Y438756D01*
X117599Y438793D01*
X117550Y438972D01*
X117506Y439154D01*
X117491Y439188D01*
X117481Y439223D01*
X117400Y439392D01*
X117324Y439562D01*
X117304Y439593D01*
X117288Y439626D01*
X117178Y439777D01*
X117073Y439932D01*
X117039Y439969D01*
X117026Y439988D01*
X116999Y440014D01*
X116907Y440115D01*
X104341Y452681D01*
X103199Y455438D01*
X103199Y455740D01*
X103183Y455925D01*
X103171Y456112D01*
X103163Y456147D01*
X103159Y456184D01*
X103110Y456365D01*
X103066Y456546D01*
X103051Y456579D01*
X103041Y456615D01*
X102960Y456784D01*
X102884Y456954D01*
X102864Y456984D01*
X102848Y457018D01*
X102738Y457170D01*
X102633Y457323D01*
X102600Y457361D01*
X102586Y457380D01*
X102559Y457405D01*
X102467Y457507D01*
X97317Y462657D01*
X97317Y473743D01*
X101807Y478233D01*
X101894Y478338D01*
X101989Y478436D01*
X102037Y478509D01*
X102093Y478576D01*
X102161Y478694D01*
X102236Y478808D01*
X102271Y478888D01*
X102314Y478964D01*
X102359Y479093D01*
X102413Y479219D01*
X102433Y479303D01*
X102462Y479385D01*
X102484Y479521D01*
X102515Y479654D01*
X102519Y479740D01*
X102533Y479826D01*
X102530Y479963D01*
X102537Y480100D01*
X102526Y480186D01*
X102524Y480273D01*
X102497Y480407D01*
X102479Y480543D01*
X102453Y480626D01*
X102436Y480711D01*
X102385Y480838D01*
X102344Y480968D01*
X102303Y481045D01*
X102271Y481126D01*
X102198Y481242D01*
X102134Y481363D01*
X102081Y481431D01*
X102035Y481505D01*
X101943Y481607D01*
X101858Y481714D01*
X101793Y481772D01*
X101735Y481836D01*
X101626Y481920D01*
X101524Y482011D01*
X101450Y482056D01*
X101381Y482109D01*
X101259Y482172D01*
X101142Y482243D01*
X101061Y482274D01*
X100984Y482314D01*
X100853Y482354D01*
X100726Y482403D01*
X100640Y482420D01*
X100557Y482445D01*
X100421Y482461D01*
X100287Y482487D01*
X100150Y482494D01*
X100113Y482498D01*
X100090Y482497D01*
X100040Y482499D01*
X63500Y482499D01*
X63450Y482495D01*
X63400Y482497D01*
X63228Y482475D01*
X63055Y482459D01*
X63007Y482446D01*
X62957Y482440D01*
X62792Y482387D01*
X62624Y482341D01*
X62579Y482319D01*
X62532Y482304D01*
X62378Y482223D01*
X62222Y482148D01*
X62181Y482118D01*
X62137Y482095D01*
X62000Y481988D01*
X61860Y481886D01*
X61825Y481850D01*
X61786Y481819D01*
X61670Y481689D01*
X61550Y481564D01*
X61523Y481522D01*
X61489Y481484D01*
X61399Y481336D01*
X61303Y481192D01*
X61283Y481146D01*
X61257Y481103D01*
X61195Y480941D01*
X61126Y480781D01*
X61115Y480733D01*
X61097Y480686D01*
X61064Y480515D01*
X61025Y480346D01*
X61022Y480296D01*
X61013Y480247D01*
X61001Y480000D01*
X61001Y471140D01*
X61005Y471090D01*
X61003Y471040D01*
X61025Y470868D01*
X61041Y470695D01*
X61054Y470647D01*
X61060Y470597D01*
X61113Y470432D01*
X61159Y470264D01*
X61181Y470219D01*
X61196Y470172D01*
X61277Y470018D01*
X61352Y469862D01*
X61382Y469821D01*
X61405Y469777D01*
X61512Y469640D01*
X61614Y469500D01*
X61650Y469465D01*
X61681Y469426D01*
X61811Y469310D01*
X61936Y469190D01*
X61978Y469163D01*
X62016Y469129D01*
X62164Y469039D01*
X62308Y468943D01*
X62354Y468923D01*
X62397Y468897D01*
X62559Y468835D01*
X62719Y468766D01*
X62767Y468755D01*
X62814Y468737D01*
X62985Y468704D01*
X63154Y468665D01*
X63204Y468662D01*
X63253Y468653D01*
X63500Y468641D01*
X63535Y468641D01*
X68144Y466732D01*
X71672Y463204D01*
X73581Y458595D01*
X73581Y453605D01*
X71672Y448996D01*
X68144Y445468D01*
X65446Y444351D01*
X65411Y444333D01*
X65375Y444320D01*
X65213Y444229D01*
X65050Y444144D01*
X65019Y444120D01*
X64985Y444101D01*
X64843Y443983D01*
X64697Y443869D01*
X64671Y443841D01*
X64642Y443816D01*
X64523Y443675D01*
X64399Y443537D01*
X64379Y443504D01*
X64354Y443474D01*
X64262Y443314D01*
X64165Y443156D01*
X64151Y443120D01*
X64132Y443087D01*
X64070Y442912D01*
X64002Y442740D01*
X63995Y442702D01*
X63982Y442666D01*
X63952Y442484D01*
X63916Y442302D01*
X63916Y442263D01*
X63909Y442225D01*
X63912Y442040D01*
X63910Y441855D01*
X63916Y441817D01*
X63917Y441778D01*
X63952Y441597D01*
X63983Y441415D01*
X63996Y441378D01*
X64003Y441340D01*
X64071Y441168D01*
X64133Y440994D01*
X64152Y440960D01*
X64167Y440924D01*
X64264Y440767D01*
X64356Y440607D01*
X64381Y440577D01*
X64401Y440544D01*
X64525Y440406D01*
X64644Y440265D01*
X64674Y440241D01*
X64700Y440212D01*
X64846Y440099D01*
X64988Y439981D01*
X65022Y439962D01*
X65053Y439938D01*
X65267Y439815D01*
X66302Y439288D01*
X67581Y438359D01*
X68699Y437241D01*
X69628Y435962D01*
X70345Y434554D01*
X70785Y433199D01*
X53500Y433199D01*
X36215Y433199D01*
X36655Y434554D01*
X37372Y435962D01*
X38301Y437241D01*
X39419Y438359D01*
X40698Y439288D01*
X41733Y439815D01*
X41765Y439836D01*
X41801Y439851D01*
X41954Y439954D01*
X42111Y440053D01*
X42140Y440079D01*
X42172Y440100D01*
X42304Y440229D01*
X42441Y440354D01*
X42464Y440384D01*
X42492Y440411D01*
X42600Y440562D01*
X42712Y440709D01*
X42730Y440743D01*
X42752Y440775D01*
X42831Y440942D01*
X42916Y441106D01*
X42927Y441143D01*
X42943Y441178D01*
X42992Y441357D01*
X43045Y441534D01*
X43049Y441572D01*
X43060Y441610D01*
X43075Y441795D01*
X43096Y441978D01*
X43094Y442016D01*
X43097Y442055D01*
X43080Y442239D01*
X43068Y442423D01*
X43059Y442461D01*
X43055Y442500D01*
X43005Y442677D01*
X42961Y442857D01*
X42945Y442892D01*
X42934Y442930D01*
X42854Y443096D01*
X42778Y443264D01*
X42756Y443296D01*
X42739Y443331D01*
X42630Y443480D01*
X42525Y443633D01*
X42498Y443661D01*
X42475Y443692D01*
X42342Y443819D01*
X42211Y443951D01*
X42179Y443973D01*
X42151Y444000D01*
X41997Y444101D01*
X41846Y444207D01*
X41810Y444224D01*
X41778Y444245D01*
X41554Y444351D01*
X38856Y445468D01*
X35328Y448996D01*
X33419Y453605D01*
X33419Y458595D01*
X35328Y463204D01*
X38856Y466732D01*
X43465Y468641D01*
X43500Y468641D01*
X43550Y468645D01*
X43600Y468643D01*
X43772Y468665D01*
X43945Y468681D01*
X43993Y468694D01*
X44043Y468700D01*
X44208Y468753D01*
X44376Y468799D01*
X44421Y468821D01*
X44468Y468836D01*
X44622Y468917D01*
X44778Y468992D01*
X44819Y469022D01*
X44863Y469045D01*
X45000Y469152D01*
X45140Y469254D01*
X45175Y469290D01*
X45214Y469321D01*
X45330Y469451D01*
X45450Y469576D01*
X45477Y469618D01*
X45511Y469656D01*
X45601Y469804D01*
X45697Y469948D01*
X45717Y469994D01*
X45743Y470037D01*
X45805Y470199D01*
X45874Y470359D01*
X45885Y470407D01*
X45903Y470454D01*
X45936Y470625D01*
X45975Y470794D01*
X45978Y470844D01*
X45987Y470893D01*
X45999Y471140D01*
X45999Y487592D01*
X47141Y490349D01*
X53151Y496359D01*
X55908Y497501D01*
X162992Y497501D01*
X165749Y496359D01*
X167859Y494249D01*
X169001Y491492D01*
X169001Y480661D01*
X169017Y480474D01*
X169029Y480289D01*
X169037Y480253D01*
X169041Y480216D01*
X169090Y480035D01*
X169134Y479855D01*
X169149Y479821D01*
X169159Y479785D01*
X169240Y479616D01*
X169316Y479446D01*
X169336Y479416D01*
X169352Y479382D01*
X169462Y479231D01*
X169567Y479077D01*
X169600Y479039D01*
X169614Y479020D01*
X169641Y478995D01*
X169733Y478893D01*
X170393Y478233D01*
X170536Y478113D01*
X170676Y477989D01*
X170708Y477970D01*
X170736Y477946D01*
X170898Y477854D01*
X171058Y477757D01*
X171092Y477744D01*
X171124Y477726D01*
X171300Y477664D01*
X171475Y477597D01*
X171511Y477590D01*
X171546Y477578D01*
X171730Y477548D01*
X171913Y477513D01*
X171964Y477510D01*
X171987Y477507D01*
X172024Y477508D01*
X172160Y477501D01*
X176636Y477501D01*
X176822Y477517D01*
X177008Y477529D01*
X177043Y477537D01*
X177080Y477541D01*
X177261Y477590D01*
X177442Y477634D01*
X177475Y477649D01*
X177511Y477659D01*
X177680Y477740D01*
X177850Y477816D01*
X177880Y477836D01*
X177914Y477852D01*
X178066Y477962D01*
X178219Y478067D01*
X178257Y478100D01*
X178276Y478114D01*
X178301Y478141D01*
X178403Y478233D01*
X182283Y482113D01*
X192317Y482113D01*
X200001Y474429D01*
X200039Y474397D01*
X200073Y474360D01*
X200210Y474254D01*
X200343Y474143D01*
X200387Y474118D01*
X200427Y474088D01*
X200581Y474008D01*
X200732Y473922D01*
X200779Y473906D01*
X200823Y473883D01*
X200989Y473832D01*
X201153Y473774D01*
X201203Y473766D01*
X201250Y473752D01*
X201422Y473731D01*
X201594Y473703D01*
X201644Y473704D01*
X201694Y473699D01*
X201867Y473709D01*
X202041Y473712D01*
X202090Y473722D01*
X202140Y473725D01*
X202309Y473766D01*
X202479Y473801D01*
X202525Y473819D01*
X202574Y473831D01*
X202732Y473901D01*
X202894Y473965D01*
X202936Y473992D01*
X202982Y474012D01*
X203125Y474110D01*
X203273Y474202D01*
X203310Y474235D01*
X203352Y474263D01*
X203535Y474429D01*
X208718Y479613D01*
X210201Y479613D01*
X210201Y470000D01*
X210201Y460387D01*
X208718Y460387D01*
X203535Y465571D01*
X203497Y465603D01*
X203463Y465640D01*
X203325Y465746D01*
X203192Y465857D01*
X203149Y465882D01*
X203109Y465912D01*
X202955Y465992D01*
X202804Y466078D01*
X202757Y466094D01*
X202712Y466117D01*
X202547Y466168D01*
X202382Y466226D01*
X202333Y466234D01*
X202285Y466248D01*
X202113Y466269D01*
X201941Y466297D01*
X201891Y466296D01*
X201842Y466301D01*
X201668Y466291D01*
X201495Y466288D01*
X201446Y466278D01*
X201396Y466275D01*
X201227Y466234D01*
X201057Y466199D01*
X201010Y466181D01*
X200962Y466169D01*
X200803Y466099D01*
X200642Y466035D01*
X200599Y466008D01*
X200553Y465988D01*
X200410Y465890D01*
X200262Y465798D01*
X200225Y465765D01*
X200184Y465737D01*
X200001Y465571D01*
X192317Y457887D01*
X182283Y457887D01*
X178403Y461767D01*
X178260Y461887D01*
X178120Y462011D01*
X178088Y462030D01*
X178060Y462054D01*
X177898Y462146D01*
X177738Y462243D01*
X177704Y462256D01*
X177672Y462274D01*
X177495Y462336D01*
X177322Y462403D01*
X177285Y462410D01*
X177250Y462423D01*
X177066Y462452D01*
X176883Y462487D01*
X176832Y462490D01*
X176809Y462493D01*
X176772Y462492D01*
X176636Y462499D01*
X175760Y462499D01*
X175575Y462483D01*
X175388Y462471D01*
X175352Y462463D01*
X175316Y462459D01*
X175135Y462410D01*
X174954Y462366D01*
X174921Y462351D01*
X174885Y462341D01*
X174716Y462260D01*
X174546Y462184D01*
X174516Y462164D01*
X174482Y462148D01*
X174331Y462038D01*
X174177Y461933D01*
X174139Y461899D01*
X174120Y461886D01*
X174095Y461859D01*
X173993Y461767D01*
X172518Y460292D01*
X172398Y460149D01*
X172274Y460009D01*
X172255Y459977D01*
X172231Y459949D01*
X172139Y459787D01*
X172042Y459627D01*
X172029Y459593D01*
X172011Y459561D01*
X171949Y459385D01*
X171882Y459210D01*
X171875Y459174D01*
X171862Y459139D01*
X171833Y458955D01*
X171798Y458772D01*
X171795Y458721D01*
X171792Y458698D01*
X171793Y458661D01*
X171786Y458524D01*
X171786Y305900D01*
X171790Y305850D01*
X171788Y305800D01*
X171810Y305628D01*
X171826Y305455D01*
X171839Y305407D01*
X171845Y305357D01*
X171898Y305192D01*
X171944Y305024D01*
X171966Y304979D01*
X171981Y304932D01*
X172062Y304778D01*
X172137Y304622D01*
X172167Y304581D01*
X172190Y304537D01*
X172297Y304400D01*
X172399Y304260D01*
X172435Y304225D01*
X172466Y304186D01*
X172596Y304070D01*
X172721Y303950D01*
X172763Y303923D01*
X172801Y303889D01*
X172949Y303799D01*
X173093Y303703D01*
X173139Y303683D01*
X173182Y303657D01*
X173344Y303595D01*
X173504Y303526D01*
X173552Y303515D01*
X173599Y303497D01*
X173770Y303464D01*
X173939Y303425D01*
X173989Y303422D01*
X174038Y303413D01*
X174145Y303408D01*
X176919Y302259D01*
X180644Y298534D01*
X181786Y295777D01*
X181786Y278427D01*
X181802Y278241D01*
X181814Y278055D01*
X181822Y278019D01*
X181826Y277982D01*
X181875Y277802D01*
X181919Y277621D01*
X181934Y277587D01*
X181944Y277552D01*
X182025Y277383D01*
X182101Y277213D01*
X182121Y277182D01*
X182137Y277149D01*
X182247Y276998D01*
X182352Y276843D01*
X182386Y276806D01*
X182399Y276787D01*
X182426Y276761D01*
X182518Y276660D01*
X190445Y268733D01*
X190588Y268613D01*
X190728Y268489D01*
X190759Y268470D01*
X190788Y268446D01*
X190950Y268354D01*
X191109Y268257D01*
X191144Y268244D01*
X191176Y268226D01*
X191352Y268164D01*
X191526Y268097D01*
X191563Y268090D01*
X191597Y268077D01*
X191782Y268048D01*
X191965Y268013D01*
X192015Y268010D01*
X192039Y268007D01*
X192076Y268008D01*
X192212Y268001D01*
X198002Y268001D01*
X198188Y268017D01*
X198374Y268029D01*
X198410Y268037D01*
X198447Y268041D01*
X198628Y268090D01*
X198808Y268134D01*
X198842Y268149D01*
X198878Y268159D01*
X199046Y268240D01*
X199217Y268316D01*
X199247Y268336D01*
X199281Y268352D01*
X199432Y268462D01*
X199586Y268567D01*
X199624Y268601D01*
X199643Y268614D01*
X199668Y268641D01*
X199770Y268733D01*
X201448Y270411D01*
X205981Y272289D01*
X205991Y272294D01*
X206002Y272298D01*
X206189Y272398D01*
X206377Y272496D01*
X206386Y272503D01*
X206396Y272508D01*
X206562Y272640D01*
X206730Y272770D01*
X206737Y272779D01*
X206746Y272786D01*
X206887Y272946D01*
X207028Y273103D01*
X207034Y273113D01*
X207041Y273121D01*
X207151Y273304D01*
X207262Y273483D01*
X207266Y273494D01*
X207272Y273504D01*
X207347Y273702D01*
X207425Y273899D01*
X207427Y273911D01*
X207431Y273921D01*
X207470Y274129D01*
X207511Y274338D01*
X207511Y274349D01*
X207513Y274360D01*
X207514Y274570D01*
X207517Y274784D01*
X207515Y274796D01*
X207515Y274807D01*
X207479Y275017D01*
X207444Y275225D01*
X207440Y275236D01*
X207438Y275247D01*
X207365Y275448D01*
X207294Y275646D01*
X207288Y275656D01*
X207284Y275666D01*
X207177Y275849D01*
X207071Y276033D01*
X207064Y276042D01*
X207058Y276051D01*
X206920Y276212D01*
X206783Y276374D01*
X206774Y276381D01*
X206767Y276390D01*
X206601Y276524D01*
X206439Y276659D01*
X206429Y276664D01*
X206420Y276672D01*
X206232Y276775D01*
X206049Y276878D01*
X206039Y276881D01*
X206029Y276887D01*
X205797Y276975D01*
X204542Y277383D01*
X203253Y278039D01*
X202083Y278890D01*
X201060Y279913D01*
X200209Y281083D01*
X199553Y282372D01*
X199218Y283401D01*
X208070Y283401D01*
X216922Y283401D01*
X216587Y282372D01*
X215931Y281083D01*
X215080Y279913D01*
X214057Y278890D01*
X212887Y278039D01*
X211598Y277383D01*
X210343Y276975D01*
X210332Y276970D01*
X210321Y276968D01*
X210129Y276883D01*
X209932Y276799D01*
X209922Y276793D01*
X209912Y276789D01*
X209737Y276671D01*
X209559Y276554D01*
X209551Y276546D01*
X209541Y276539D01*
X209387Y276390D01*
X209236Y276245D01*
X209229Y276236D01*
X209221Y276228D01*
X209097Y276056D01*
X208972Y275884D01*
X208967Y275874D01*
X208961Y275865D01*
X208870Y275674D01*
X208778Y275482D01*
X208775Y275472D01*
X208770Y275461D01*
X208714Y275255D01*
X208657Y275052D01*
X208656Y275041D01*
X208653Y275030D01*
X208635Y274817D01*
X208616Y274607D01*
X208617Y274596D01*
X208616Y274585D01*
X208636Y274374D01*
X208654Y274162D01*
X208657Y274151D01*
X208658Y274140D01*
X208715Y273937D01*
X208771Y273731D01*
X208776Y273721D01*
X208779Y273710D01*
X208872Y273518D01*
X208963Y273328D01*
X208969Y273319D01*
X208974Y273308D01*
X209100Y273136D01*
X209223Y272965D01*
X209231Y272957D01*
X209238Y272948D01*
X209391Y272802D01*
X209544Y272654D01*
X209553Y272648D01*
X209562Y272640D01*
X209739Y272523D01*
X209915Y272406D01*
X209925Y272401D01*
X209935Y272395D01*
X210159Y272289D01*
X214692Y270411D01*
X215481Y269623D01*
X215519Y269590D01*
X215553Y269553D01*
X215690Y269448D01*
X215823Y269336D01*
X215867Y269312D01*
X215907Y269281D01*
X216061Y269201D01*
X216212Y269116D01*
X216259Y269099D01*
X216303Y269076D01*
X216469Y269025D01*
X216633Y268967D01*
X216683Y268959D01*
X216730Y268945D01*
X216903Y268924D01*
X217074Y268897D01*
X217124Y268898D01*
X217174Y268892D01*
X217347Y268902D01*
X217521Y268906D01*
X217570Y268915D01*
X217620Y268918D01*
X217789Y268960D01*
X217959Y268994D01*
X218005Y269012D01*
X218054Y269024D01*
X218212Y269095D01*
X218374Y269159D01*
X218416Y269185D01*
X218462Y269205D01*
X218606Y269303D01*
X218753Y269395D01*
X218790Y269428D01*
X218832Y269457D01*
X219015Y269623D01*
X221767Y272375D01*
X221887Y272518D01*
X222011Y272658D01*
X222030Y272689D01*
X222054Y272718D01*
X222146Y272880D01*
X222243Y273039D01*
X222256Y273074D01*
X222274Y273106D01*
X222336Y273282D01*
X222403Y273456D01*
X222410Y273493D01*
X222423Y273528D01*
X222452Y273712D01*
X222487Y273895D01*
X222490Y273945D01*
X222493Y273969D01*
X222492Y274006D01*
X222499Y274142D01*
X222499Y303162D01*
X222487Y303299D01*
X222484Y303435D01*
X222467Y303520D01*
X222459Y303607D01*
X222423Y303739D01*
X222396Y303873D01*
X222364Y303954D01*
X222341Y304038D01*
X222282Y304161D01*
X222231Y304288D01*
X222185Y304362D01*
X222148Y304441D01*
X222067Y304552D01*
X221995Y304668D01*
X221937Y304732D01*
X221886Y304803D01*
X221787Y304897D01*
X221695Y304999D01*
X221626Y305052D01*
X221564Y305112D01*
X221450Y305188D01*
X221341Y305271D01*
X221264Y305311D01*
X221192Y305359D01*
X221066Y305414D01*
X220944Y305476D01*
X220861Y305502D01*
X220781Y305536D01*
X220648Y305567D01*
X220517Y305607D01*
X220431Y305618D01*
X220346Y305637D01*
X220210Y305644D01*
X220074Y305661D01*
X219987Y305655D01*
X219900Y305660D01*
X219765Y305642D01*
X219628Y305634D01*
X219543Y305613D01*
X219457Y305602D01*
X219327Y305560D01*
X219194Y305528D01*
X219115Y305493D01*
X219032Y305466D01*
X218911Y305402D01*
X218786Y305347D01*
X218714Y305298D01*
X218637Y305257D01*
X218529Y305172D01*
X218416Y305096D01*
X218315Y305004D01*
X218286Y304981D01*
X218270Y304963D01*
X218233Y304930D01*
X214692Y301389D01*
X210159Y299511D01*
X210149Y299506D01*
X210138Y299502D01*
X209951Y299402D01*
X209763Y299304D01*
X209754Y299297D01*
X209744Y299292D01*
X209577Y299160D01*
X209410Y299030D01*
X209403Y299021D01*
X209394Y299014D01*
X209253Y298854D01*
X209112Y298697D01*
X209106Y298687D01*
X209099Y298679D01*
X208989Y298496D01*
X208878Y298317D01*
X208874Y298306D01*
X208868Y298296D01*
X208793Y298098D01*
X208715Y297901D01*
X208713Y297889D01*
X208709Y297879D01*
X208670Y297671D01*
X208629Y297462D01*
X208629Y297451D01*
X208627Y297440D01*
X208626Y297227D01*
X208623Y297016D01*
X208625Y297004D01*
X208625Y296993D01*
X208661Y296782D01*
X208696Y296575D01*
X208700Y296564D01*
X208702Y296553D01*
X208775Y296352D01*
X208846Y296154D01*
X208852Y296144D01*
X208856Y296134D01*
X208963Y295951D01*
X209069Y295767D01*
X209076Y295758D01*
X209082Y295749D01*
X209220Y295588D01*
X209357Y295426D01*
X209366Y295419D01*
X209373Y295410D01*
X209539Y295276D01*
X209701Y295141D01*
X209711Y295136D01*
X209720Y295128D01*
X209908Y295025D01*
X210091Y294922D01*
X210101Y294919D01*
X210111Y294913D01*
X210343Y294825D01*
X211598Y294417D01*
X212887Y293761D01*
X214057Y292910D01*
X215080Y291887D01*
X215931Y290717D01*
X216587Y289428D01*
X216922Y288399D01*
X208070Y288399D01*
X199218Y288399D01*
X199553Y289428D01*
X200209Y290717D01*
X201060Y291887D01*
X202083Y292910D01*
X203253Y293761D01*
X204542Y294417D01*
X205797Y294825D01*
X205808Y294830D01*
X205819Y294832D01*
X206011Y294917D01*
X206208Y295001D01*
X206218Y295007D01*
X206228Y295011D01*
X206402Y295128D01*
X206581Y295246D01*
X206589Y295254D01*
X206599Y295261D01*
X206751Y295409D01*
X206904Y295555D01*
X206911Y295564D01*
X206919Y295572D01*
X207043Y295744D01*
X207168Y295916D01*
X207173Y295926D01*
X207179Y295935D01*
X207270Y296126D01*
X207362Y296318D01*
X207365Y296328D01*
X207370Y296339D01*
X207426Y296545D01*
X207483Y296748D01*
X207484Y296759D01*
X207487Y296770D01*
X207505Y296983D01*
X207524Y297193D01*
X207523Y297204D01*
X207524Y297215D01*
X207504Y297426D01*
X207486Y297638D01*
X207483Y297649D01*
X207482Y297660D01*
X207425Y297863D01*
X207369Y298069D01*
X207364Y298079D01*
X207361Y298090D01*
X207268Y298282D01*
X207177Y298472D01*
X207171Y298481D01*
X207166Y298492D01*
X207040Y298664D01*
X206917Y298835D01*
X206909Y298843D01*
X206902Y298852D01*
X206750Y298997D01*
X206596Y299146D01*
X206587Y299152D01*
X206578Y299160D01*
X206401Y299277D01*
X206225Y299394D01*
X206215Y299399D01*
X206205Y299405D01*
X205981Y299511D01*
X201448Y301389D01*
X198159Y304678D01*
X196379Y308975D01*
X196379Y313625D01*
X198159Y317922D01*
X201448Y321211D01*
X202607Y321691D01*
X202728Y321755D01*
X202853Y321809D01*
X202925Y321858D01*
X203002Y321898D01*
X203110Y321982D01*
X203224Y322058D01*
X203287Y322119D01*
X203355Y322172D01*
X203446Y322274D01*
X203545Y322370D01*
X203595Y322440D01*
X203653Y322505D01*
X203725Y322622D01*
X203804Y322733D01*
X203842Y322811D01*
X203887Y322885D01*
X203937Y323013D01*
X203996Y323137D01*
X204018Y323221D01*
X204050Y323301D01*
X204076Y323436D01*
X204112Y323568D01*
X204119Y323654D01*
X204136Y323740D01*
X204138Y323877D01*
X204150Y324013D01*
X204141Y324100D01*
X204143Y324186D01*
X204120Y324321D01*
X204107Y324458D01*
X204084Y324541D01*
X204070Y324627D01*
X204023Y324756D01*
X203987Y324888D01*
X203949Y324966D01*
X203919Y325048D01*
X203851Y325167D01*
X203791Y325289D01*
X203740Y325359D01*
X203697Y325435D01*
X203608Y325540D01*
X203527Y325650D01*
X203465Y325710D01*
X203408Y325776D01*
X203303Y325864D01*
X203204Y325958D01*
X203131Y326005D01*
X203064Y326061D01*
X202945Y326128D01*
X202830Y326203D01*
X202707Y326262D01*
X202675Y326280D01*
X202652Y326287D01*
X202607Y326309D01*
X201448Y326789D01*
X198159Y330078D01*
X196379Y334375D01*
X196379Y339025D01*
X198159Y343322D01*
X201448Y346611D01*
X202607Y347091D01*
X202728Y347155D01*
X202853Y347209D01*
X202925Y347258D01*
X203002Y347298D01*
X203110Y347382D01*
X203224Y347458D01*
X203287Y347519D01*
X203355Y347572D01*
X203446Y347674D01*
X203545Y347770D01*
X203595Y347840D01*
X203653Y347905D01*
X203725Y348022D01*
X203804Y348133D01*
X203842Y348211D01*
X203887Y348285D01*
X203937Y348413D01*
X203996Y348537D01*
X204018Y348621D01*
X204050Y348701D01*
X204076Y348836D01*
X204112Y348968D01*
X204119Y349054D01*
X204136Y349140D01*
X204138Y349277D01*
X204150Y349413D01*
X204141Y349500D01*
X204143Y349586D01*
X204120Y349721D01*
X204107Y349858D01*
X204084Y349941D01*
X204070Y350027D01*
X204023Y350156D01*
X203987Y350288D01*
X203949Y350366D01*
X203919Y350448D01*
X203851Y350567D01*
X203791Y350689D01*
X203740Y350759D01*
X203697Y350835D01*
X203608Y350940D01*
X203527Y351050D01*
X203465Y351110D01*
X203408Y351176D01*
X203303Y351264D01*
X203204Y351358D01*
X203131Y351405D01*
X203064Y351461D01*
X202945Y351528D01*
X202830Y351603D01*
X202707Y351662D01*
X202675Y351680D01*
X202652Y351687D01*
X202607Y351709D01*
X201448Y352189D01*
X198159Y355478D01*
X196379Y359775D01*
X196379Y364425D01*
X198159Y368722D01*
X201448Y372011D01*
X202607Y372491D01*
X202728Y372555D01*
X202853Y372609D01*
X202925Y372658D01*
X203002Y372698D01*
X203110Y372782D01*
X203224Y372858D01*
X203287Y372919D01*
X203355Y372972D01*
X203446Y373074D01*
X203545Y373170D01*
X203595Y373240D01*
X203653Y373305D01*
X203725Y373422D01*
X203804Y373533D01*
X203842Y373611D01*
X203887Y373685D01*
X203937Y373813D01*
X203996Y373937D01*
X204018Y374021D01*
X204050Y374101D01*
X204076Y374236D01*
X204112Y374368D01*
X204119Y374454D01*
X204136Y374540D01*
X204138Y374677D01*
X204150Y374813D01*
X204141Y374900D01*
X204143Y374986D01*
X204120Y375121D01*
X204107Y375258D01*
X204084Y375341D01*
X204070Y375427D01*
X204023Y375556D01*
X203987Y375688D01*
X203949Y375766D01*
X203919Y375848D01*
X203851Y375967D01*
X203791Y376089D01*
X203740Y376159D01*
X203697Y376235D01*
X203608Y376340D01*
X203527Y376450D01*
X203465Y376510D01*
X203408Y376576D01*
X203303Y376664D01*
X203204Y376758D01*
X203131Y376805D01*
X203064Y376861D01*
X202945Y376928D01*
X202830Y377003D01*
X202707Y377062D01*
X202675Y377080D01*
X202652Y377087D01*
X202607Y377109D01*
X201448Y377589D01*
X198159Y380878D01*
X196379Y385175D01*
X196379Y389825D01*
X198159Y394122D01*
X201448Y397411D01*
X202607Y397891D01*
X202728Y397954D01*
X202853Y398009D01*
X202925Y398058D01*
X203002Y398098D01*
X203111Y398182D01*
X203224Y398258D01*
X203286Y398319D01*
X203355Y398372D01*
X203446Y398474D01*
X203545Y398570D01*
X203595Y398640D01*
X203653Y398705D01*
X203725Y398822D01*
X203805Y398933D01*
X203842Y399012D01*
X203887Y399086D01*
X203937Y399213D01*
X203996Y399337D01*
X204018Y399421D01*
X204050Y399502D01*
X204076Y399636D01*
X204112Y399768D01*
X204119Y399855D01*
X204136Y399940D01*
X204138Y400077D01*
X204150Y400213D01*
X204141Y400300D01*
X204143Y400387D01*
X204120Y400522D01*
X204107Y400658D01*
X204084Y400741D01*
X204070Y400827D01*
X204024Y400956D01*
X203987Y401088D01*
X203949Y401166D01*
X203919Y401248D01*
X203851Y401367D01*
X203791Y401490D01*
X203740Y401560D01*
X203696Y401635D01*
X203608Y401740D01*
X203527Y401850D01*
X203465Y401910D01*
X203408Y401976D01*
X203303Y402064D01*
X203204Y402158D01*
X203131Y402206D01*
X203064Y402261D01*
X202945Y402328D01*
X202830Y402403D01*
X202707Y402462D01*
X202675Y402480D01*
X202652Y402487D01*
X202607Y402509D01*
X201448Y402989D01*
X198159Y406278D01*
X196379Y410575D01*
X196379Y415225D01*
X198159Y419522D01*
X201448Y422811D01*
X202607Y423291D01*
X202728Y423354D01*
X202853Y423409D01*
X202925Y423458D01*
X203002Y423498D01*
X203110Y423582D01*
X203224Y423658D01*
X203286Y423719D01*
X203355Y423772D01*
X203446Y423874D01*
X203545Y423970D01*
X203595Y424040D01*
X203653Y424105D01*
X203725Y424221D01*
X203805Y424333D01*
X203842Y424412D01*
X203887Y424485D01*
X203937Y424613D01*
X203996Y424737D01*
X204018Y424821D01*
X204050Y424901D01*
X204076Y425036D01*
X204112Y425168D01*
X204119Y425255D01*
X204136Y425340D01*
X204138Y425476D01*
X204150Y425613D01*
X204141Y425700D01*
X204143Y425786D01*
X204120Y425922D01*
X204107Y426058D01*
X204084Y426141D01*
X204070Y426227D01*
X204024Y426356D01*
X203987Y426488D01*
X203949Y426566D01*
X203919Y426648D01*
X203851Y426766D01*
X203791Y426889D01*
X203740Y426960D01*
X203697Y427035D01*
X203608Y427139D01*
X203527Y427250D01*
X203464Y427310D01*
X203408Y427376D01*
X203303Y427463D01*
X203204Y427558D01*
X203131Y427606D01*
X203064Y427661D01*
X202945Y427728D01*
X202830Y427803D01*
X202707Y427861D01*
X202675Y427880D01*
X202652Y427887D01*
X202607Y427909D01*
X201448Y428389D01*
X198159Y431678D01*
X196379Y435975D01*
X196379Y440625D01*
X198159Y444922D01*
X201448Y448211D01*
X205745Y449991D01*
X210395Y449991D01*
X214692Y448211D01*
X218233Y444670D01*
X218338Y444583D01*
X218436Y444488D01*
X218509Y444440D01*
X218576Y444384D01*
X218694Y444317D01*
X218808Y444241D01*
X218888Y444206D01*
X218964Y444163D01*
X219093Y444118D01*
X219219Y444064D01*
X219303Y444044D01*
X219385Y444015D01*
X219521Y443993D01*
X219654Y443963D01*
X219740Y443958D01*
X219826Y443944D01*
X219963Y443947D01*
X220100Y443940D01*
X220186Y443952D01*
X220273Y443953D01*
X220407Y443980D01*
X220543Y443998D01*
X220626Y444024D01*
X220711Y444042D01*
X220838Y444092D01*
X220968Y444134D01*
X221045Y444174D01*
X221126Y444206D01*
X221242Y444279D01*
X221363Y444343D01*
X221431Y444397D01*
X221505Y444443D01*
X221607Y444534D01*
X221714Y444619D01*
X221772Y444684D01*
X221836Y444742D01*
X221920Y444851D01*
X222011Y444953D01*
X222056Y445028D01*
X222109Y445096D01*
X222172Y445218D01*
X222243Y445335D01*
X222274Y445416D01*
X222314Y445493D01*
X222354Y445624D01*
X222403Y445752D01*
X222420Y445837D01*
X222445Y445920D01*
X222461Y446056D01*
X222487Y446190D01*
X222494Y446327D01*
X222498Y446364D01*
X222497Y446387D01*
X222499Y446438D01*
X222499Y448128D01*
X223641Y450884D01*
X229079Y456322D01*
X229199Y456466D01*
X229323Y456605D01*
X229342Y456637D01*
X229366Y456665D01*
X229458Y456827D01*
X229555Y456987D01*
X229568Y457021D01*
X229586Y457054D01*
X229648Y457230D01*
X229715Y457404D01*
X229722Y457440D01*
X229735Y457475D01*
X229764Y457659D01*
X229799Y457842D01*
X229802Y457893D01*
X229805Y457916D01*
X229804Y457953D01*
X229811Y458090D01*
X229811Y476665D01*
X230953Y479421D01*
X243773Y492241D01*
X246529Y493383D01*
X282671Y493383D01*
X285427Y492241D01*
X313553Y464115D01*
X313697Y463995D01*
X313836Y463871D01*
X313868Y463852D01*
X313896Y463828D01*
X314058Y463736D01*
X314218Y463639D01*
X314252Y463626D01*
X314285Y463608D01*
X314461Y463546D01*
X314635Y463479D01*
X314671Y463472D01*
X314706Y463459D01*
X314890Y463430D01*
X315074Y463395D01*
X315124Y463392D01*
X315147Y463389D01*
X315184Y463390D01*
X315321Y463383D01*
X320943Y463383D01*
X328783Y455543D01*
X328783Y444457D01*
X323633Y439307D01*
X323513Y439163D01*
X323389Y439024D01*
X323370Y438992D01*
X323346Y438964D01*
X323254Y438802D01*
X323157Y438642D01*
X323144Y438608D01*
X323126Y438576D01*
X323064Y438400D01*
X322997Y438225D01*
X322990Y438189D01*
X322977Y438154D01*
X322948Y437970D01*
X322913Y437787D01*
X322910Y437736D01*
X322907Y437713D01*
X322908Y437676D01*
X322901Y437539D01*
X322901Y430000D01*
X322905Y429950D01*
X322903Y429900D01*
X322925Y429728D01*
X322941Y429555D01*
X322954Y429507D01*
X322960Y429457D01*
X323013Y429292D01*
X323059Y429124D01*
X323081Y429079D01*
X323096Y429032D01*
X323177Y428878D01*
X323252Y428722D01*
X323282Y428681D01*
X323305Y428637D01*
X323412Y428500D01*
X323514Y428360D01*
X323550Y428325D01*
X323581Y428286D01*
X323711Y428170D01*
X323836Y428050D01*
X323878Y428023D01*
X323916Y427989D01*
X324064Y427899D01*
X324208Y427803D01*
X324254Y427783D01*
X324297Y427757D01*
X324459Y427695D01*
X324619Y427626D01*
X324667Y427615D01*
X324714Y427597D01*
X324885Y427564D01*
X325054Y427525D01*
X325104Y427522D01*
X325153Y427513D01*
X325400Y427501D01*
X373495Y427501D01*
X376252Y426359D01*
X412241Y390370D01*
X413383Y387613D01*
X413383Y363187D01*
X412241Y360430D01*
X389435Y337625D01*
X389403Y337587D01*
X389366Y337553D01*
X389260Y337415D01*
X389149Y337282D01*
X389124Y337239D01*
X389094Y337199D01*
X389014Y337045D01*
X388928Y336894D01*
X388912Y336847D01*
X388889Y336802D01*
X388838Y336637D01*
X388780Y336472D01*
X388772Y336423D01*
X388758Y336375D01*
X388737Y336203D01*
X388709Y336031D01*
X388710Y335981D01*
X388705Y335932D01*
X388715Y335758D01*
X388718Y335585D01*
X388728Y335536D01*
X388731Y335486D01*
X388772Y335317D01*
X388807Y335147D01*
X388825Y335100D01*
X388837Y335052D01*
X388907Y334893D01*
X388971Y334732D01*
X388998Y334689D01*
X389018Y334644D01*
X389116Y334500D01*
X389208Y334353D01*
X389241Y334315D01*
X389269Y334274D01*
X389435Y334091D01*
X393383Y330143D01*
X393383Y319057D01*
X386093Y311767D01*
X386061Y311729D01*
X386024Y311695D01*
X385918Y311558D01*
X385807Y311424D01*
X385782Y311381D01*
X385752Y311341D01*
X385672Y311187D01*
X385586Y311036D01*
X385570Y310989D01*
X385547Y310944D01*
X385496Y310779D01*
X385438Y310615D01*
X385430Y310565D01*
X385415Y310517D01*
X385395Y310345D01*
X385367Y310174D01*
X385368Y310123D01*
X385362Y310074D01*
X385373Y309900D01*
X385376Y309727D01*
X385386Y309678D01*
X385389Y309628D01*
X385430Y309459D01*
X385464Y309289D01*
X385483Y309243D01*
X385495Y309194D01*
X385565Y309035D01*
X385629Y308874D01*
X385656Y308831D01*
X385676Y308786D01*
X385774Y308642D01*
X385865Y308495D01*
X385899Y308458D01*
X385927Y308416D01*
X386093Y308233D01*
X388783Y305543D01*
X388783Y294457D01*
X383633Y289307D01*
X383513Y289164D01*
X383389Y289024D01*
X383370Y288992D01*
X383346Y288964D01*
X383254Y288802D01*
X383157Y288642D01*
X383144Y288608D01*
X383126Y288576D01*
X383064Y288399D01*
X382997Y288225D01*
X382990Y288189D01*
X382977Y288154D01*
X382948Y287970D01*
X382913Y287787D01*
X382910Y287736D01*
X382907Y287713D01*
X382908Y287676D01*
X382901Y287540D01*
X382901Y285530D01*
X382917Y285344D01*
X382929Y285158D01*
X382937Y285123D01*
X382941Y285086D01*
X382990Y284905D01*
X383034Y284724D01*
X383049Y284691D01*
X383059Y284655D01*
X383140Y284486D01*
X383216Y284316D01*
X383236Y284286D01*
X383252Y284252D01*
X383362Y284101D01*
X383467Y283947D01*
X383501Y283909D01*
X383514Y283890D01*
X383541Y283865D01*
X383633Y283763D01*
X400463Y266933D01*
X401605Y264176D01*
X401605Y222612D01*
X400463Y219855D01*
X369515Y188907D01*
X369395Y188764D01*
X369271Y188624D01*
X369252Y188593D01*
X369228Y188564D01*
X369136Y188402D01*
X369039Y188243D01*
X369026Y188208D01*
X369008Y188176D01*
X368946Y188000D01*
X368879Y187826D01*
X368872Y187789D01*
X368859Y187755D01*
X368830Y187570D01*
X368795Y187387D01*
X368792Y187337D01*
X368789Y187313D01*
X368790Y187276D01*
X368783Y187140D01*
X368783Y155998D01*
X368799Y155812D01*
X368811Y155626D01*
X368819Y155590D01*
X368823Y155554D01*
X368872Y155373D01*
X368916Y155192D01*
X368931Y155159D01*
X368941Y155123D01*
X369022Y154954D01*
X369098Y154784D01*
X369118Y154753D01*
X369134Y154720D01*
X369244Y154569D01*
X369349Y154415D01*
X369383Y154377D01*
X369396Y154358D01*
X369423Y154333D01*
X369515Y154231D01*
X405179Y118567D01*
X405179Y118566D01*
X407641Y116105D01*
X408783Y113348D01*
X408783Y77787D01*
X407691Y75152D01*
X407648Y75015D01*
X407597Y74881D01*
X407582Y74802D01*
X407558Y74725D01*
X407540Y74583D01*
X407513Y74442D01*
X407507Y74319D01*
X407502Y74282D01*
X407504Y74255D01*
X407501Y74195D01*
X407501Y64366D01*
X406359Y61609D01*
X403898Y59148D01*
X403897Y59147D01*
X400853Y56103D01*
X400852Y56103D01*
X398391Y53641D01*
X395634Y52499D01*
X344366Y52499D01*
X341609Y53641D01*
X339147Y56103D01*
X336103Y59147D01*
X333641Y61609D01*
X332499Y64366D01*
X332499Y69658D01*
X332483Y69844D01*
X332471Y70030D01*
X332463Y70066D01*
X332459Y70103D01*
X332410Y70283D01*
X332366Y70464D01*
X332351Y70498D01*
X332341Y70533D01*
X332260Y70702D01*
X332184Y70872D01*
X332164Y70903D01*
X332148Y70936D01*
X332038Y71087D01*
X331933Y71242D01*
X331899Y71279D01*
X331886Y71298D01*
X331859Y71324D01*
X331767Y71425D01*
X327307Y75885D01*
X327164Y76005D01*
X327024Y76129D01*
X326993Y76148D01*
X326964Y76172D01*
X326802Y76264D01*
X326643Y76361D01*
X326608Y76374D01*
X326576Y76392D01*
X326400Y76454D01*
X326226Y76521D01*
X326189Y76528D01*
X326155Y76541D01*
X325970Y76570D01*
X325787Y76605D01*
X325737Y76608D01*
X325713Y76611D01*
X325677Y76610D01*
X325540Y76617D01*
X323660Y76617D01*
X323474Y76601D01*
X323288Y76589D01*
X323252Y76581D01*
X323215Y76577D01*
X323035Y76528D01*
X322854Y76484D01*
X322820Y76469D01*
X322785Y76459D01*
X322616Y76378D01*
X322446Y76302D01*
X322415Y76282D01*
X322382Y76266D01*
X322231Y76156D01*
X322076Y76051D01*
X322039Y76017D01*
X322020Y76004D01*
X321994Y75977D01*
X321893Y75885D01*
X305087Y59079D01*
X304999Y58974D01*
X304904Y58876D01*
X304856Y58803D01*
X304800Y58736D01*
X304733Y58618D01*
X304657Y58504D01*
X304623Y58424D01*
X304580Y58348D01*
X304534Y58219D01*
X304480Y58093D01*
X304460Y58009D01*
X304432Y57927D01*
X304410Y57791D01*
X304379Y57658D01*
X304375Y57572D01*
X304361Y57486D01*
X304364Y57349D01*
X304357Y57212D01*
X304368Y57126D01*
X304370Y57039D01*
X304397Y56905D01*
X304414Y56769D01*
X304441Y56686D01*
X304458Y56601D01*
X304509Y56474D01*
X304550Y56344D01*
X304591Y56267D01*
X304623Y56186D01*
X304695Y56070D01*
X304759Y55949D01*
X304813Y55881D01*
X304859Y55807D01*
X304951Y55705D01*
X305035Y55598D01*
X305100Y55540D01*
X305159Y55476D01*
X305267Y55392D01*
X305370Y55301D01*
X305444Y55256D01*
X305513Y55203D01*
X305635Y55140D01*
X305751Y55069D01*
X305832Y55038D01*
X305910Y54998D01*
X306040Y54958D01*
X306168Y54909D01*
X306254Y54892D01*
X306337Y54867D01*
X306472Y54851D01*
X306607Y54825D01*
X306744Y54818D01*
X306780Y54814D01*
X306804Y54815D01*
X306854Y54813D01*
X315017Y54813D01*
X322113Y47717D01*
X322113Y37683D01*
X314429Y29999D01*
X314397Y29961D01*
X314360Y29927D01*
X314254Y29790D01*
X314143Y29657D01*
X314118Y29613D01*
X314088Y29573D01*
X314008Y29419D01*
X313922Y29268D01*
X313906Y29221D01*
X313883Y29177D01*
X313832Y29011D01*
X313774Y28847D01*
X313766Y28797D01*
X313752Y28750D01*
X313731Y28578D01*
X313703Y28406D01*
X313704Y28356D01*
X313699Y28306D01*
X313709Y28133D01*
X313712Y27959D01*
X313722Y27910D01*
X313725Y27860D01*
X313766Y27691D01*
X313801Y27521D01*
X313819Y27475D01*
X313831Y27426D01*
X313901Y27268D01*
X313965Y27106D01*
X313992Y27064D01*
X314012Y27018D01*
X314110Y26875D01*
X314202Y26727D01*
X314235Y26690D01*
X314263Y26648D01*
X314429Y26465D01*
X319613Y21282D01*
X319613Y19799D01*
X310000Y19799D01*
X310000Y19799D01*
G37*
%LPD*%
%LPC*%
G36*
X375392Y434999D02*
X375392Y434999D01*
X366490Y437385D01*
X358509Y441992D01*
X351992Y448509D01*
X347385Y456490D01*
X344999Y465392D01*
X344999Y474608D01*
X347385Y483510D01*
X351992Y491491D01*
X358509Y498008D01*
X366490Y502615D01*
X375392Y505001D01*
X384608Y505001D01*
X393510Y502615D01*
X401491Y498008D01*
X408008Y491491D01*
X412615Y483510D01*
X415001Y474608D01*
X415001Y465392D01*
X412615Y456490D01*
X408008Y448509D01*
X401491Y441992D01*
X393510Y437385D01*
X384608Y434999D01*
X375392Y434999D01*
G37*
%LPD*%
%LPC*%
G36*
X45392Y24999D02*
X45392Y24999D01*
X36490Y27385D01*
X28509Y31992D01*
X21992Y38509D01*
X17385Y46490D01*
X14999Y55392D01*
X14999Y64608D01*
X17385Y73510D01*
X21992Y81491D01*
X28509Y88008D01*
X36490Y92615D01*
X45392Y95001D01*
X54608Y95001D01*
X63510Y92615D01*
X71491Y88008D01*
X78008Y81491D01*
X82615Y73510D01*
X85001Y64608D01*
X85001Y55392D01*
X82615Y46490D01*
X78008Y38509D01*
X71491Y31992D01*
X63510Y27385D01*
X54608Y24999D01*
X45392Y24999D01*
G37*
%LPD*%
%LPC*%
G36*
X165199Y42499D02*
X165199Y42499D01*
X165199Y57285D01*
X166554Y56845D01*
X167962Y56128D01*
X169241Y55199D01*
X170359Y54081D01*
X171288Y52802D01*
X172005Y51394D01*
X172494Y49891D01*
X172741Y48330D01*
X172741Y42499D01*
X165199Y42499D01*
G37*
%LPD*%
%LPC*%
G36*
X165199Y37501D02*
X165199Y37501D01*
X172741Y37501D01*
X172741Y31670D01*
X172494Y30109D01*
X172005Y28606D01*
X171288Y27198D01*
X170359Y25919D01*
X169241Y24801D01*
X167962Y23872D01*
X166554Y23155D01*
X165199Y22715D01*
X165199Y37501D01*
G37*
%LPD*%
%LPC*%
G36*
X55999Y420659D02*
X55999Y420659D01*
X55999Y428201D01*
X70785Y428201D01*
X70345Y426846D01*
X69628Y425438D01*
X68699Y424159D01*
X67581Y423041D01*
X66302Y422112D01*
X64894Y421395D01*
X63391Y420906D01*
X61830Y420659D01*
X55999Y420659D01*
G37*
%LPD*%
%LPC*%
G36*
X217259Y42499D02*
X217259Y42499D01*
X217259Y48330D01*
X217506Y49891D01*
X217995Y51394D01*
X218712Y52802D01*
X219641Y54081D01*
X220759Y55199D01*
X222038Y56128D01*
X223446Y56845D01*
X224801Y57285D01*
X224801Y42499D01*
X217259Y42499D01*
G37*
%LPD*%
%LPC*%
G36*
X45170Y420659D02*
X45170Y420659D01*
X43609Y420906D01*
X42106Y421395D01*
X40698Y422112D01*
X39419Y423041D01*
X38301Y424159D01*
X37372Y425438D01*
X36655Y426846D01*
X36215Y428201D01*
X51001Y428201D01*
X51001Y420659D01*
X45170Y420659D01*
G37*
%LPD*%
%LPC*%
G36*
X223446Y23155D02*
X223446Y23155D01*
X222038Y23872D01*
X220759Y24801D01*
X219641Y25919D01*
X218712Y27198D01*
X217995Y28606D01*
X217506Y30109D01*
X217259Y31670D01*
X217259Y37501D01*
X224801Y37501D01*
X224801Y22715D01*
X223446Y23155D01*
G37*
%LPD*%
%LPC*%
G36*
X215199Y472499D02*
X215199Y472499D01*
X215199Y479613D01*
X216682Y479613D01*
X222313Y473982D01*
X222313Y472499D01*
X215199Y472499D01*
G37*
%LPD*%
%LPC*%
G36*
X56787Y317999D02*
X56787Y317999D01*
X56787Y319482D01*
X62418Y325113D01*
X63901Y325113D01*
X63901Y317999D01*
X56787Y317999D01*
G37*
%LPD*%
%LPC*%
G36*
X17687Y252499D02*
X17687Y252499D01*
X17687Y253982D01*
X23318Y259613D01*
X24801Y259613D01*
X24801Y252499D01*
X17687Y252499D01*
G37*
%LPD*%
%LPC*%
G36*
X17687Y192499D02*
X17687Y192499D01*
X17687Y193982D01*
X23318Y199613D01*
X24801Y199613D01*
X24801Y192499D01*
X17687Y192499D01*
G37*
%LPD*%
%LPC*%
G36*
X215199Y460387D02*
X215199Y460387D01*
X215199Y467501D01*
X222313Y467501D01*
X222313Y466018D01*
X216682Y460387D01*
X215199Y460387D01*
G37*
%LPD*%
%LPC*%
G36*
X62418Y305887D02*
X62418Y305887D01*
X56787Y311518D01*
X56787Y313001D01*
X63901Y313001D01*
X63901Y305887D01*
X62418Y305887D01*
G37*
%LPD*%
%LPC*%
G36*
X23318Y240387D02*
X23318Y240387D01*
X17687Y246018D01*
X17687Y247501D01*
X24801Y247501D01*
X24801Y240387D01*
X23318Y240387D01*
G37*
%LPD*%
%LPC*%
G36*
X23318Y180387D02*
X23318Y180387D01*
X17687Y186018D01*
X17687Y187501D01*
X24801Y187501D01*
X24801Y180387D01*
X23318Y180387D01*
G37*
%LPD*%
D10*
X52700Y190000D03*
X27300Y190000D03*
X52700Y250000D03*
X27300Y250000D03*
D11*
X187300Y470000D03*
X212700Y470000D03*
D10*
X91800Y315500D03*
X66400Y315500D03*
D12*
X310000Y42700D03*
X310000Y17300D03*
D13*
X90000Y195870D03*
X90000Y244130D03*
D14*
X267300Y400000D03*
X280000Y380950D03*
X292700Y400000D03*
D15*
X350000Y372700D03*
X330950Y360000D03*
X350000Y347300D03*
X370000Y252700D03*
X350950Y240000D03*
X370000Y227300D03*
D16*
X352700Y120000D03*
X340000Y139050D03*
X327300Y120000D03*
X292700Y120000D03*
X280000Y139050D03*
X267300Y120000D03*
D17*
X161500Y468200D03*
X110700Y468200D03*
X375400Y90000D03*
X324600Y90000D03*
D18*
X280000Y95400D03*
X280000Y44600D03*
D17*
X325400Y180000D03*
X274600Y180000D03*
X325400Y210000D03*
X274600Y210000D03*
X325400Y240000D03*
X274600Y240000D03*
D18*
X290000Y325400D03*
X290000Y274600D03*
X250000Y325400D03*
X250000Y274600D03*
D19*
X264600Y450000D03*
X315400Y450000D03*
D18*
X380000Y375400D03*
X380000Y324600D03*
D19*
X324600Y300000D03*
X375400Y300000D03*
D20*
X129330Y438300D03*
D21*
X129330Y412900D03*
X129330Y387500D03*
X129330Y362100D03*
X129330Y336700D03*
X129330Y311300D03*
X129330Y285900D03*
X129330Y260500D03*
X129330Y235100D03*
X129330Y209700D03*
X129330Y184300D03*
X129330Y158900D03*
X129330Y133500D03*
X129330Y108100D03*
X208070Y108100D03*
X208070Y133500D03*
X208070Y158900D03*
X208070Y184300D03*
X208070Y209700D03*
X208070Y235100D03*
X208070Y260500D03*
X208070Y285900D03*
X208070Y311300D03*
X208070Y336700D03*
X208070Y362100D03*
X208070Y387500D03*
X208070Y412900D03*
X208070Y438300D03*
D22*
X227300Y47540D02*
X227300Y32460D01*
X252700Y32460D02*
X252700Y47540D01*
X57540Y392700D02*
X42460Y392700D01*
X42460Y367300D02*
X57540Y367300D01*
X61040Y456100D02*
X45960Y456100D01*
X45960Y430700D02*
X61040Y430700D01*
X137300Y47540D02*
X137300Y32460D01*
X162700Y32460D02*
X162700Y47540D01*
D23*
X120300Y244130D02*
X90000Y244130D01*
X120300Y244130D02*
X129330Y235100D01*
X90000Y244130D02*
X58570Y244130D01*
X52700Y250000D01*
X90000Y195870D02*
X115500Y195870D01*
X129330Y209700D01*
X58570Y195870D02*
X52700Y190000D01*
X58570Y195870D02*
X90000Y195870D01*
X208070Y184300D02*
X219328Y184300D01*
X228718Y193690D02*
X228718Y199005D01*
X238718Y209005D01*
X250000Y252003D02*
X250000Y274600D01*
X228718Y193690D02*
X219328Y184300D01*
X238718Y209005D02*
X238718Y240721D01*
X250000Y252003D01*
X272139Y260000D02*
X290000Y260000D01*
X290000Y274600D01*
X238718Y189548D02*
X208070Y158900D01*
X238718Y189548D02*
X238718Y194863D01*
X248718Y204863D01*
X248718Y236579D01*
X272139Y260000D01*
X232570Y133500D02*
X208070Y133500D01*
X245896Y146827D02*
X245896Y179580D01*
X248718Y182402D02*
X248718Y190721D01*
X258718Y200721D01*
X274600Y234600D02*
X274600Y240000D01*
X245896Y146827D02*
X232570Y133500D01*
X245896Y179580D02*
X248718Y182402D01*
X258718Y200721D02*
X258718Y218718D01*
X274600Y234600D01*
X209970Y110000D02*
X208070Y108100D01*
X209970Y110000D02*
X225858Y110000D01*
X243196Y127338D02*
X243196Y129984D01*
X255896Y142684D01*
X243196Y127338D02*
X225858Y110000D01*
X255896Y175438D02*
X258718Y178260D01*
X274600Y202461D02*
X274600Y210000D01*
X255896Y175438D02*
X255896Y142684D01*
X258718Y178260D02*
X258718Y186579D01*
X274600Y202461D01*
X147430Y90000D02*
X129330Y108100D01*
X147430Y90000D02*
X220000Y90000D01*
X253196Y123196D01*
X253196Y125842D01*
X265896Y138542D01*
X265896Y171296D02*
X274600Y180000D01*
X265896Y171296D02*
X265896Y138542D01*
X390000Y82139D02*
X390000Y70000D01*
X350000Y70000D01*
X350000Y100000D01*
X330000Y120000D01*
X327300Y120000D01*
X264118Y101979D02*
X264118Y88821D01*
X273421Y79518D01*
X286579Y79518D01*
X267300Y105161D02*
X267300Y120000D01*
X267300Y105161D02*
X264118Y101979D01*
X297061Y90000D02*
X300000Y90000D01*
X297061Y90000D02*
X286579Y79518D01*
X300000Y90000D02*
X330000Y120000D01*
X384104Y246858D02*
X384104Y258542D01*
X375842Y266804D01*
X370000Y232754D02*
X370000Y227300D01*
X370000Y232754D02*
X384104Y246858D01*
X375842Y266804D02*
X373196Y266804D01*
X350000Y290000D02*
X350000Y347300D01*
X350000Y290000D02*
X373196Y266804D01*
X395882Y368821D02*
X395882Y381979D01*
X395882Y368821D02*
X385657Y358596D01*
X361296Y358596D02*
X350000Y347300D01*
X361296Y358596D02*
X385657Y358596D01*
X395882Y381979D02*
X377861Y400000D01*
X292700Y400000D01*
X208070Y260500D02*
X208070Y235100D01*
X208070Y260500D02*
X188070Y260500D01*
X174285Y274285D01*
X174285Y294285D02*
X172670Y295900D01*
X164285Y295900D01*
X139330Y295900D01*
X129330Y285900D01*
X99730Y315500D01*
X91800Y315500D01*
X161500Y468200D02*
X163300Y470000D01*
X187300Y470000D01*
X164285Y465415D02*
X161500Y468200D01*
X164285Y465415D02*
X164285Y295900D01*
X174285Y294285D02*
X174285Y274285D01*
X292700Y400000D02*
X290000Y402700D01*
X290000Y460000D01*
X280000Y470000D01*
X250000Y470000D01*
X247312Y467312D01*
X247312Y449805D01*
X240000Y442493D02*
X240000Y354488D01*
X230000Y344488D02*
X230000Y270000D01*
X240000Y442493D02*
X247312Y449805D01*
X240000Y354488D02*
X230000Y344488D01*
X230000Y270000D02*
X220500Y260500D01*
X208070Y260500D01*
X53500Y456100D02*
X53500Y486100D01*
X57400Y490000D01*
X161500Y490000D01*
X161500Y468200D01*
X391282Y83421D02*
X390000Y82139D01*
X391282Y83421D02*
X391282Y98718D01*
X366804Y123196D02*
X366804Y132192D01*
X351282Y147714D01*
X351282Y208582D02*
X370000Y227300D01*
X366804Y123196D02*
X391282Y98718D01*
X351282Y147714D02*
X351282Y208582D01*
X110700Y456930D02*
X110700Y468200D01*
X110700Y456930D02*
X129330Y438300D01*
X250000Y350950D02*
X250000Y325400D01*
X250000Y350950D02*
X280000Y380950D01*
X324600Y360000D02*
X290000Y325400D01*
X324600Y360000D02*
X330950Y360000D01*
X325400Y240000D02*
X350950Y240000D01*
X340000Y172139D02*
X340000Y139050D01*
X340000Y172139D02*
X341282Y173421D01*
X341282Y194118D01*
X325400Y210000D01*
X325400Y180000D02*
X300000Y180000D01*
X280000Y160000D01*
X280000Y139050D01*
X267300Y400000D02*
X267300Y447300D01*
X264600Y450000D01*
X350000Y372700D02*
X377300Y372700D01*
X380000Y375400D01*
X360000Y262700D02*
X370000Y252700D01*
X360000Y262700D02*
X341900Y262700D01*
X324600Y280000D01*
X324600Y300000D01*
X375400Y97300D02*
X375400Y90000D01*
X375400Y97300D02*
X352700Y120000D01*
X292700Y120000D02*
X280000Y107300D01*
X280000Y95400D01*
X324600Y89200D02*
X280000Y44600D01*
X324600Y89200D02*
X324600Y90000D01*
X257300Y44600D02*
X252700Y40000D01*
X257300Y44600D02*
X280000Y44600D01*
X237312Y475173D02*
X248021Y485882D01*
X281179Y485882D01*
X315400Y451661D02*
X315400Y450000D01*
X315400Y451661D02*
X281179Y485882D01*
X237312Y475173D02*
X237312Y453948D01*
X230000Y446636D01*
X230000Y358630D02*
X208070Y336700D01*
X230000Y358630D02*
X230000Y446636D01*
X281900Y42700D02*
X310000Y42700D01*
X281900Y42700D02*
X280000Y44600D01*
X405882Y364679D02*
X405882Y386121D01*
X380000Y338797D02*
X380000Y324600D01*
X380000Y338797D02*
X405882Y364679D01*
X372003Y420000D02*
X320000Y420000D01*
X315400Y424600D01*
X315400Y450000D01*
X372003Y420000D02*
X405882Y386121D01*
X394104Y262684D02*
X394104Y224104D01*
X401282Y79279D02*
X400000Y77997D01*
X401282Y111856D02*
X361282Y151856D01*
X401282Y111856D02*
X401282Y79279D01*
X400000Y65858D02*
X394142Y60000D01*
X361282Y191282D02*
X394104Y224104D01*
X361282Y191282D02*
X361282Y151856D01*
X400000Y77997D02*
X400000Y65858D01*
X345858Y60000D02*
X340000Y65858D01*
X340000Y73800D01*
X324600Y89200D01*
X345858Y60000D02*
X394142Y60000D01*
X375400Y320000D02*
X380000Y324600D01*
X375400Y320000D02*
X375400Y300000D01*
X375400Y281388D01*
X394104Y262684D01*
X72700Y392700D02*
X50000Y392700D01*
X92900Y412900D02*
X129330Y412900D01*
X92900Y412900D02*
X72700Y392700D01*
X107500Y387500D02*
X129330Y387500D01*
X87300Y367300D02*
X50000Y367300D01*
X87300Y367300D02*
X107500Y387500D01*
X100000Y77300D02*
X137300Y40000D01*
X100000Y129570D02*
X129330Y158900D01*
X100000Y129570D02*
X100000Y77300D01*
M02*
