G04 EAGLE Gerber RS-274X export*
G75*
%MOMM*%
%FSLAX34Y34*%
%LPD*%
%IN*%
%IPPOS*%
%AMOC8*
5,1,8,0,0,1.08239X$1,22.5*%
G01*
%ADD10C,0.254000*%


D10*
X0Y0D02*
X430000Y0D01*
X430000Y520000D01*
X0Y520000D01*
X0Y0D01*
X405000Y469299D02*
X404921Y467898D01*
X404764Y466504D01*
X404529Y465121D01*
X404217Y463753D01*
X403829Y462405D01*
X403365Y461081D01*
X402829Y459785D01*
X402220Y458521D01*
X401541Y457293D01*
X400795Y456105D01*
X399983Y454961D01*
X399108Y453864D01*
X398174Y452818D01*
X397182Y451826D01*
X396136Y450892D01*
X395039Y450017D01*
X393895Y449205D01*
X392707Y448459D01*
X391479Y447780D01*
X390215Y447171D01*
X388919Y446635D01*
X387595Y446171D01*
X386247Y445783D01*
X384879Y445471D01*
X383496Y445236D01*
X382102Y445079D01*
X380701Y445000D01*
X379299Y445000D01*
X377898Y445079D01*
X376504Y445236D01*
X375121Y445471D01*
X373753Y445783D01*
X372405Y446171D01*
X371081Y446635D01*
X369785Y447171D01*
X368521Y447780D01*
X367293Y448459D01*
X366105Y449205D01*
X364961Y450017D01*
X363864Y450892D01*
X362818Y451826D01*
X361826Y452818D01*
X360892Y453864D01*
X360017Y454961D01*
X359205Y456105D01*
X358459Y457293D01*
X357780Y458521D01*
X357171Y459785D01*
X356635Y461081D01*
X356171Y462405D01*
X355783Y463753D01*
X355471Y465121D01*
X355236Y466504D01*
X355079Y467898D01*
X355000Y469299D01*
X355000Y470701D01*
X355079Y472102D01*
X355236Y473496D01*
X355471Y474879D01*
X355783Y476247D01*
X356171Y477595D01*
X356635Y478919D01*
X357171Y480215D01*
X357780Y481479D01*
X358459Y482707D01*
X359205Y483895D01*
X360017Y485039D01*
X360892Y486136D01*
X361826Y487182D01*
X362818Y488174D01*
X363864Y489108D01*
X364961Y489983D01*
X366105Y490795D01*
X367293Y491541D01*
X368521Y492220D01*
X369785Y492829D01*
X371081Y493365D01*
X372405Y493829D01*
X373753Y494217D01*
X375121Y494529D01*
X376504Y494764D01*
X377898Y494921D01*
X379299Y495000D01*
X380701Y495000D01*
X382102Y494921D01*
X383496Y494764D01*
X384879Y494529D01*
X386247Y494217D01*
X387595Y493829D01*
X388919Y493365D01*
X390215Y492829D01*
X391479Y492220D01*
X392707Y491541D01*
X393895Y490795D01*
X395039Y489983D01*
X396136Y489108D01*
X397182Y488174D01*
X398174Y487182D01*
X399108Y486136D01*
X399983Y485039D01*
X400795Y483895D01*
X401541Y482707D01*
X402220Y481479D01*
X402829Y480215D01*
X403365Y478919D01*
X403829Y477595D01*
X404217Y476247D01*
X404529Y474879D01*
X404764Y473496D01*
X404921Y472102D01*
X405000Y470701D01*
X405000Y469299D01*
X75000Y59299D02*
X74921Y57898D01*
X74764Y56504D01*
X74529Y55121D01*
X74217Y53753D01*
X73829Y52405D01*
X73365Y51081D01*
X72829Y49785D01*
X72220Y48521D01*
X71541Y47293D01*
X70795Y46105D01*
X69983Y44961D01*
X69108Y43864D01*
X68174Y42818D01*
X67182Y41826D01*
X66136Y40892D01*
X65039Y40017D01*
X63895Y39205D01*
X62707Y38459D01*
X61479Y37780D01*
X60215Y37171D01*
X58919Y36635D01*
X57595Y36171D01*
X56247Y35783D01*
X54879Y35471D01*
X53496Y35236D01*
X52102Y35079D01*
X50701Y35000D01*
X49299Y35000D01*
X47898Y35079D01*
X46504Y35236D01*
X45121Y35471D01*
X43753Y35783D01*
X42405Y36171D01*
X41081Y36635D01*
X39785Y37171D01*
X38521Y37780D01*
X37293Y38459D01*
X36105Y39205D01*
X34961Y40017D01*
X33864Y40892D01*
X32818Y41826D01*
X31826Y42818D01*
X30892Y43864D01*
X30017Y44961D01*
X29205Y46105D01*
X28459Y47293D01*
X27780Y48521D01*
X27171Y49785D01*
X26635Y51081D01*
X26171Y52405D01*
X25783Y53753D01*
X25471Y55121D01*
X25236Y56504D01*
X25079Y57898D01*
X25000Y59299D01*
X25000Y60701D01*
X25079Y62102D01*
X25236Y63496D01*
X25471Y64879D01*
X25783Y66247D01*
X26171Y67595D01*
X26635Y68919D01*
X27171Y70215D01*
X27780Y71479D01*
X28459Y72707D01*
X29205Y73895D01*
X30017Y75039D01*
X30892Y76136D01*
X31826Y77182D01*
X32818Y78174D01*
X33864Y79108D01*
X34961Y79983D01*
X36105Y80795D01*
X37293Y81541D01*
X38521Y82220D01*
X39785Y82829D01*
X41081Y83365D01*
X42405Y83829D01*
X43753Y84217D01*
X45121Y84529D01*
X46504Y84764D01*
X47898Y84921D01*
X49299Y85000D01*
X50701Y85000D01*
X52102Y84921D01*
X53496Y84764D01*
X54879Y84529D01*
X56247Y84217D01*
X57595Y83829D01*
X58919Y83365D01*
X60215Y82829D01*
X61479Y82220D01*
X62707Y81541D01*
X63895Y80795D01*
X65039Y79983D01*
X66136Y79108D01*
X67182Y78174D01*
X68174Y77182D01*
X69108Y76136D01*
X69983Y75039D01*
X70795Y73895D01*
X71541Y72707D01*
X72220Y71479D01*
X72829Y70215D01*
X73365Y68919D01*
X73829Y67595D01*
X74217Y66247D01*
X74529Y64879D01*
X74764Y63496D01*
X74921Y62102D01*
X75000Y60701D01*
X75000Y59299D01*
M02*
