G04 EAGLE Gerber RS-274X export*
G75*
%MOMM*%
%FSLAX34Y34*%
%LPD*%
%INSilkscreen Bottom*%
%IPPOS*%
%AMOC8*
5,1,8,0,0,1.08239X$1,22.5*%
G01*
%ADD10C,0.254000*%
%ADD11C,0.101600*%


D10*
X18250Y405400D02*
X18250Y354600D01*
X37300Y354600D01*
X81750Y354600D01*
X81750Y405400D01*
X37300Y405400D01*
X18250Y405400D01*
X37300Y405400D02*
X37300Y354600D01*
D11*
X11392Y396256D02*
X2248Y390160D01*
X2248Y396256D02*
X11392Y390160D01*
X11392Y402606D02*
X11390Y402700D01*
X11384Y402795D01*
X11374Y402889D01*
X11361Y402982D01*
X11343Y403075D01*
X11322Y403167D01*
X11297Y403258D01*
X11268Y403348D01*
X11236Y403437D01*
X11199Y403524D01*
X11160Y403610D01*
X11116Y403694D01*
X11070Y403776D01*
X11020Y403856D01*
X10966Y403934D01*
X10910Y404010D01*
X10850Y404083D01*
X10788Y404154D01*
X10722Y404222D01*
X10654Y404288D01*
X10583Y404350D01*
X10510Y404410D01*
X10434Y404466D01*
X10356Y404520D01*
X10276Y404570D01*
X10194Y404616D01*
X10110Y404660D01*
X10024Y404699D01*
X9937Y404736D01*
X9848Y404768D01*
X9758Y404797D01*
X9667Y404822D01*
X9575Y404843D01*
X9482Y404861D01*
X9389Y404874D01*
X9295Y404884D01*
X9200Y404890D01*
X9106Y404892D01*
X11392Y402606D02*
X11390Y402500D01*
X11384Y402395D01*
X11375Y402290D01*
X11362Y402185D01*
X11345Y402081D01*
X11324Y401978D01*
X11300Y401875D01*
X11271Y401773D01*
X11240Y401673D01*
X11204Y401573D01*
X11166Y401475D01*
X11123Y401379D01*
X11077Y401283D01*
X11028Y401190D01*
X10976Y401099D01*
X10920Y401009D01*
X10861Y400921D01*
X10799Y400836D01*
X10734Y400753D01*
X10666Y400672D01*
X10595Y400594D01*
X10521Y400519D01*
X10445Y400446D01*
X10366Y400376D01*
X10285Y400309D01*
X10201Y400244D01*
X10115Y400183D01*
X10027Y400125D01*
X9937Y400070D01*
X9845Y400019D01*
X9751Y399970D01*
X9655Y399925D01*
X9558Y399884D01*
X9460Y399846D01*
X9360Y399812D01*
X7328Y404130D02*
X7395Y404197D01*
X7464Y404262D01*
X7536Y404324D01*
X7609Y404383D01*
X7686Y404439D01*
X7764Y404493D01*
X7844Y404543D01*
X7926Y404590D01*
X8010Y404634D01*
X8096Y404674D01*
X8183Y404712D01*
X8271Y404746D01*
X8361Y404776D01*
X8451Y404803D01*
X8543Y404827D01*
X8636Y404847D01*
X8729Y404863D01*
X8823Y404876D01*
X8917Y404885D01*
X9011Y404890D01*
X9106Y404892D01*
X7328Y404130D02*
X2248Y399812D01*
X2248Y404892D01*
M02*
