M48
;GenerationSoftware,Autodesk,EAGLE,9.6.2*%
;CreationDate,2022-11-25T05:43:13Z*%
FMAT,2
ICI,OFF
METRIC,TZ,000.000
T4C0.813
T3C0.830
T2C1.000
T1C5.000
%
G90
M71
T1
X38000Y47000
X5000Y6000
T2
X16270Y4000
X22730Y4000
X25270Y4000
X5000Y39270
X5000Y36730
X5350Y45610
X5350Y43070
X13730Y4000
T3
X12933Y28590
X12933Y26050
X12933Y23510
X12933Y20970
X12933Y18430
X12933Y15890
X12933Y13350
X12933Y10810
X20807Y10810
X20807Y15890
X20807Y18430
X20807Y20970
X20807Y23510
X20807Y26050
X20807Y28590
X20807Y31130
X20807Y33670
X20807Y36210
X20807Y41290
X20807Y43830
X20807Y13350
X12933Y38750
X12933Y43830
X12933Y41290
X12933Y36210
X12933Y33670
X12933Y31130
X20807Y38750
T4
X27460Y21000
X32540Y24000
X27460Y24000
X29000Y32540
X29000Y27460
X31000Y4270
X25000Y27460
X26460Y45000
X31540Y45000
X38000Y37540
X38000Y32460
X32460Y30000
X37540Y30000
X5270Y19000
X2730Y19000
X25000Y32540
X5270Y25000
X2730Y25000
X18730Y47000
X21270Y47000
X9180Y31550
X6640Y31550
X31000Y1730
X9000Y19587
X9000Y24413
X26730Y40000
X28000Y38095
X29270Y40000
X35000Y37270
X33095Y36000
X35000Y34730
X37000Y25270
X35095Y24000
X37000Y22730
X35270Y12000
X34000Y13905
X32730Y12000
X29270Y12000
X28000Y9540
X28000Y13905
X26730Y12000
X16150Y46820
X11070Y46820
X37540Y9000
X32460Y9000
X28000Y4460
X32540Y18000
X27460Y18000
X32540Y21000
M30