<?xml version="1.0" encoding="UTF-8" standalone="no"?>
<svg
   viewBox="0 0 3401.5748 2267.7166"
   width="900mm"
   height="600mm"
   version="1.1"
   id="svg252"
   sodipodi:docname="Basev5_6mmMDF_RedCut_BlackEngrave.svg"
   inkscape:version="1.2.1 (9c6d41e410, 2022-07-14)"
   xmlns:inkscape="http://www.inkscape.org/namespaces/inkscape"
   xmlns:sodipodi="http://sodipodi.sourceforge.net/DTD/sodipodi-0.dtd"
   xmlns="http://www.w3.org/2000/svg"
   xmlns:svg="http://www.w3.org/2000/svg">
  <sodipodi:namedview
     id="namedview254"
     pagecolor="#ffffff"
     bordercolor="#000000"
     borderopacity="0.25"
     inkscape:showpageshadow="2"
     inkscape:pageopacity="0.0"
     inkscape:pagecheckerboard="0"
     inkscape:deskcolor="#d1d1d1"
     showgrid="true"
     inkscape:zoom="0.1767767"
     inkscape:cx="2836.9124"
     inkscape:cy="1549.9781"
     inkscape:window-width="1920"
     inkscape:window-height="1017"
     inkscape:window-x="-8"
     inkscape:window-y="-8"
     inkscape:window-maximized="1"
     inkscape:current-layer="g250"
     inkscape:document-units="mm">
    <inkscape:grid
       type="xygrid"
       id="grid8601"
       units="mm"
       spacingx="3.7795277"
       spacingy="3.7795277"
       visible="false" />
  </sodipodi:namedview>
  <desc
     id="desc9">Untitled Sheet1.dxf - scale = 1.000000, origin = (0.000000, 0.000000), method = file</desc>
  <defs
     id="defs24" />
  <g
     inkscape:groupmode="layer"
     inkscape:label="0"
     id="g26" />
  <g
     inkscape:groupmode="layer"
     inkscape:label="Reference"
     id="g250">
    <g
       id="g4434">
      <g
         id="g1212"
         transform="translate(-0.0546875,-910.853)">
        <path
           style="color:#000000;fill:#ff0000"
           d="m 1888.25,2056.0566 v 302.3633 h 1.0195 v -302.3633 z"
           id="path28" />
        <path
           style="color:#000000;fill:#ff0000"
           d="m 1888.7598,2055.5469 v 1.0215 h 207.8711 v -1.0215 z"
           id="path30" />
        <path
           style="color:#000000;fill:#ff0000"
           d="m 2096.1191,2056.0566 v 302.3633 h 1.0215 v -302.3633 z"
           id="path32" />
        <path
           style="color:#000000;fill:#ff0000"
           d="m 1888.7598,2357.9102 v 1.0195 h 207.8711 v -1.0195 z"
           id="path34" />
        <path
           style="color:#000000;fill:#ff0000"
           d="m 2115.5293,2055.5469 v 1.0215 h 207.8809 v -1.0215 z"
           id="path36" />
        <path
           style="color:#000000;fill:#ff0000"
           d="m 2115.5293,2055.5469 v 1.0215 h 207.8809 v -1.0215 z"
           id="path38" />
        <path
           style="color:#000000;fill:#ff0000"
           d="m 2115.0195,2056.0566 v 302.3633 h 1.0215 v -302.3633 z"
           id="path40" />
        <path
           style="color:#000000;fill:#ff0000"
           d="m 2115.0195,2056.0566 v 302.3633 h 1.0215 v -302.3633 z"
           id="path42" />
        <path
           style="color:#000000;fill:#ff0000"
           d="m 2322.9004,2056.0566 v 302.3633 h 1.0195 v -302.3633 z"
           id="path44" />
        <path
           style="color:#000000;fill:#ff0000"
           d="m 2115.5293,2357.9102 v 1.0195 h 207.8809 v -1.0195 z"
           id="path46" />
        <path
           style="color:#000000;fill:#ff0000"
           d="m 2115.5293,2357.9102 v 1.0195 h 207.8809 v -1.0195 z"
           id="path48" />
        <path
           style="color:#000000;fill:#ff0000"
           d="m 2322.9004,2056.0566 v 302.3633 h 1.0195 v -302.3633 z"
           id="path50" />
        <path
           style="color:#000000;fill:#ff0000"
           d="m 2342.3008,2055.5469 v 1.0215 h 207.8789 v -1.0215 z"
           id="path52" />
        <path
           style="color:#000000;fill:#ff0000"
           d="m 2549.6699,2056.0566 v 302.3633 h 1.0196 v -302.3633 z"
           id="path54" />
        <path
           style="color:#000000;fill:#ff0000"
           d="m 2342.3008,2357.9102 v 1.0195 h 207.8789 v -1.0195 z"
           id="path56" />
        <path
           style="color:#000000;fill:#ff0000"
           d="m 2341.7891,2056.0566 v 302.3633 h 1.0214 v -302.3633 z"
           id="path58" />
        <path
           style="color:#000000;fill:#ff0000"
           d="m 1888.7598,1734.2871 v 1.0215 h 207.8711 v -1.0215 z"
           id="path60" />
        <path
           style="color:#000000;fill:#ff0000"
           d="m 2096.1191,1734.7988 v 302.3614 h 1.0215 v -302.3614 z"
           id="path62" />
        <path
           style="color:#000000;fill:#ff0000"
           d="m 1888.7598,2036.6504 v 1.0195 h 207.8711 v -1.0195 z"
           id="path64" />
        <path
           style="color:#000000;fill:#ff0000"
           d="m 1888.25,1734.7988 v 302.3614 h 1.0195 v -302.3614 z"
           id="path66" />
        <path
           style="color:#000000;fill:#ff0000"
           d="m 2115.5293,1734.2871 v 1.0215 h 207.8809 v -1.0215 z"
           id="path68" />
        <path
           style="color:#000000;fill:#ff0000"
           d="m 2322.9004,1734.7988 v 302.3614 h 1.0195 v -302.3614 z"
           id="path70" />
        <path
           style="color:#000000;fill:#ff0000"
           d="m 2115.5293,2036.6504 v 1.0195 h 207.8809 v -1.0195 z"
           id="path72" />
        <path
           style="color:#000000;fill:#ff0000"
           d="m 2115.0195,1734.7988 v 302.3614 h 1.0215 v -302.3614 z"
           id="path74" />
        <path
           style="color:#000000;fill:#ff0000"
           d="m 2342.3008,1734.2871 v 1.0215 h 207.8789 v -1.0215 z"
           id="path76" />
        <path
           style="color:#000000;fill:#ff0000"
           d="m 2342.3008,1734.2871 v 1.0215 h 207.8789 v -1.0215 z"
           id="path78" />
        <path
           style="color:#000000;fill:#ff0000"
           d="m 2341.7891,1734.7988 v 302.3614 h 1.0214 v -302.3614 z"
           id="path80" />
        <path
           style="color:#000000;fill:#ff0000"
           d="m 2341.7891,1734.7988 v 302.3614 h 1.0214 v -302.3614 z"
           id="path82" />
        <path
           style="color:#000000;fill:#ff0000"
           d="m 2549.6699,1734.7988 v 302.3614 h 1.0196 v -302.3614 z"
           id="path84" />
        <path
           style="color:#000000;fill:#ff0000"
           d="m 2549.6699,1734.7988 v 302.3614 h 1.0196 v -302.3614 z"
           id="path86" />
        <path
           style="color:#000000;fill:#ff0000"
           d="m 2342.3008,2036.6504 v 1.0195 h 207.8789 v -1.0195 z"
           id="path88" />
        <path
           style="color:#000000;fill:#ff0000"
           d="m 2342.3008,2036.6504 v 1.0195 h 207.8789 v -1.0195 z"
           id="path90" />
        <path
           style="color:#000000;fill:#ff0000"
           d="m 1888.7598,1413.0273 v 1.0215 h 207.8711 v -1.0215 z"
           id="path92" />
        <path
           style="color:#000000;fill:#ff0000"
           d="m 2096.1191,1413.5371 v 302.3633 h 1.0215 v -302.3633 z"
           id="path94" />
        <path
           style="color:#000000;fill:#ff0000"
           d="m 1888.7598,1715.3906 v 1.0196 h 207.8711 v -1.0196 z"
           id="path96" />
        <path
           style="color:#000000;fill:#ff0000"
           d="m 1888.25,1413.5371 v 302.3633 h 1.0195 v -302.3633 z"
           id="path98" />
        <path
           style="color:#000000;fill:#ff0000"
           d="m 2115.5293,1413.0273 v 1.0215 h 207.8809 v -1.0215 z"
           id="path100" />
        <path
           style="color:#000000;fill:#ff0000"
           d="m 2322.9004,1413.5371 v 302.3633 h 1.0195 v -302.3633 z"
           id="path102" />
        <path
           style="color:#000000;fill:#ff0000"
           d="m 2115.5293,1715.3906 v 1.0196 h 207.8809 v -1.0196 z"
           id="path104" />
        <path
           style="color:#000000;fill:#ff0000"
           d="m 2115.0195,1413.5371 v 302.3633 h 1.0215 v -302.3633 z"
           id="path106" />
        <path
           style="color:#000000;fill:#ff0000"
           d="m 2342.3008,1413.0273 v 1.0215 h 207.8789 v -1.0215 z"
           id="path108" />
        <path
           style="color:#000000;fill:#ff0000"
           d="m 2342.3008,1413.0273 v 1.0215 h 207.8789 v -1.0215 z"
           id="path110" />
        <path
           style="color:#000000;fill:#ff0000"
           d="m 2341.7891,1413.5371 v 302.3633 h 1.0214 v -302.3633 z"
           id="path112" />
        <path
           style="color:#000000;fill:#ff0000"
           d="m 2341.7891,1413.5371 v 302.3633 h 1.0214 v -302.3633 z"
           id="path114" />
        <path
           style="color:#000000;fill:#ff0000"
           d="m 2549.6699,1413.5371 v 302.3633 h 1.0196 v -302.3633 z"
           id="path116" />
        <path
           style="color:#000000;fill:#ff0000"
           d="m 2549.6699,1413.5371 v 302.3633 h 1.0196 v -302.3633 z"
           id="path118" />
        <path
           style="color:#000000;fill:#ff0000"
           d="m 2342.3008,1715.3906 v 1.0196 h 207.8789 v -1.0196 z"
           id="path120" />
        <path
           style="color:#000000;fill:#ff0000"
           d="m 2342.3008,1715.3906 v 1.0196 h 207.8789 v -1.0196 z"
           id="path122" />
        <path
           style="color:#000000;fill:#ff0000"
           d="m 2776.4395,2056.0566 v 302.3633 h 1.0214 v -302.3633 z"
           id="path124" />
        <path
           style="color:#000000;fill:#ff0000"
           d="m 2569.0801,2357.9102 v 1.0195 h 207.8691 v -1.0195 z"
           id="path126" />
        <path
           style="color:#000000;fill:#ff0000"
           d="m 2568.5703,2056.0566 v 302.3633 h 1.0195 v -302.3633 z"
           id="path128" />
        <path
           style="color:#000000;fill:#ff0000"
           d="m 2569.0801,2055.5469 v 1.0215 h 207.8691 v -1.0215 z"
           id="path130" />
        <path
           style="color:#000000;fill:#ff0000"
           d="m 2776.4395,1734.7988 v 302.3614 h 1.0214 v -302.3614 z"
           id="path132" />
        <path
           style="color:#000000;fill:#ff0000"
           d="m 2569.0801,2036.6504 v 1.0195 h 207.8691 v -1.0195 z"
           id="path134" />
        <path
           style="color:#000000;fill:#ff0000"
           d="m 2568.5703,1734.7988 v 302.3614 h 1.0195 v -302.3614 z"
           id="path136" />
        <path
           style="color:#000000;fill:#ff0000"
           d="m 2569.0801,1734.2871 v 1.0215 h 207.8691 v -1.0215 z"
           id="path138" />
        <path
           style="color:#000000;fill:#ff0000"
           d="m 2776.4395,1413.5371 v 302.3633 h 1.0214 v -302.3633 z"
           id="path140" />
        <path
           style="color:#000000;fill:#ff0000"
           d="m 2569.0801,1715.3906 v 1.0196 h 207.8691 v -1.0196 z"
           id="path142" />
        <path
           style="color:#000000;fill:#ff0000"
           d="m 2568.5703,1413.5371 v 302.3633 h 1.0195 v -302.3633 z"
           id="path144" />
        <path
           style="color:#000000;fill:#ff0000"
           d="m 2569.0801,1413.0273 v 1.0215 h 207.8691 v -1.0215 z"
           id="path146" />
        <path
           style="color:#000000;fill:#ff0000"
           d="m 2880.25,1375.7422 v 1360.6289 h 1 V 1375.7422 Z"
           id="path148" />
        <path
           style="color:#000000;fill:#ff0000"
           d="m 2880.25,2736.3711 v 442.209 h 1 v -442.209 z"
           id="path150" />
        <path
           style="color:#000000;fill:#ff0000"
           d="m 0.03125,910.9707 v 1 H 1850.9707 v -1 z"
           id="path156" />
        <path
           style="color:#000000;fill:#ff0000;stroke-width:1.00157482"
           d="m 1850.9707,910.95312 v 1.03321 h 1030.2617 v -1.03321 z"
           id="path158" />
        <path
           style="color:#000000;fill:#ff0000"
           d="m 2880.25,911.4707 v 464.2715 h 1 V 911.4707 Z"
           id="path160" />
        <path
           style="color:#000000;fill:#000000"
           d="m 1207.9492,1016.6895 v 755.9043 h 1 v -755.9043 z"
           id="path162" />
        <path
           style="color:#000000;fill:#000000"
           d="m 736.00586,1772.0938 v 1 h 472.44334 v -1 z"
           id="path164" />
        <path
           style="color:#000000;fill:#000000"
           d="m 735.50586,1016.6895 v 755.9043 h 1 v -755.9043 z"
           id="path166" />
        <path
           style="color:#000000;fill:#000000"
           d="m 736.00586,1016.1895 v 1 h 472.44334 v -1 z"
           id="path168" />
        <path
           style="color:#000000;fill:#000000"
           d="m 1159.3125,1666.2656 c -6.5323,0 -11.8398,5.3075 -11.8398,11.8399 0,6.5323 5.3075,11.8379 11.8398,11.8379 6.5323,0 11.8379,-5.3056 11.8379,-11.8379 0,-6.5324 -5.3056,-11.8399 -11.8379,-11.8399 z m 0,1 c 5.9919,0 10.8379,4.848 10.8379,10.8399 0,5.9919 -4.846,10.8379 -10.8379,10.8379 -5.9919,0 -10.8398,-4.846 -10.8398,-10.8379 0,-5.9919 4.8479,-10.8399 10.8398,-10.8399 z"
           id="path170" />
        <path
           style="color:#000000;fill:#000000"
           d="m 1159.3125,1435.7148 c -6.5323,0 -11.8398,5.3056 -11.8398,11.8379 0,6.5324 5.3075,11.8399 11.8398,11.8399 6.5323,0 11.8379,-5.3075 11.8379,-11.8399 0,-6.5323 -5.3056,-11.8379 -11.8379,-11.8379 z m 0,1 c 5.9919,0 10.8379,4.846 10.8379,10.8379 0,5.9919 -4.846,10.8399 -10.8379,10.8399 -5.9919,0 -10.8398,-4.848 -10.8398,-10.8399 0,-5.9919 4.8479,-10.8379 10.8398,-10.8379 z"
           id="path172" />
        <path
           style="color:#000000;fill:#000000"
           d="m 1159.3125,1337.4473 c -6.5323,0 -11.8398,5.3055 -11.8398,11.8379 0,6.5323 5.3075,11.8398 11.8398,11.8398 6.5323,0 11.8379,-5.3075 11.8379,-11.8398 0,-6.5324 -5.3056,-11.8379 -11.8379,-11.8379 z m 0,1 c 5.9919,0 10.8379,4.8459 10.8379,10.8379 0,5.9919 -4.846,10.8398 -10.8379,10.8398 -5.9919,0 -10.8398,-4.8479 -10.8398,-10.8398 0,-5.992 4.8479,-10.8379 10.8398,-10.8379 z"
           id="path174" />
        <path
           style="color:#000000;fill:#000000"
           d="m 1159.3125,1095.5566 c -6.5323,0 -11.8398,5.3075 -11.8398,11.8399 0,6.5323 5.3075,11.8379 11.8398,11.8379 6.5323,0 11.8379,-5.3056 11.8379,-11.8379 0,-6.5324 -5.3056,-11.8399 -11.8379,-11.8399 z m 0,1 c 5.9919,0 10.8379,4.848 10.8379,10.8399 0,5.9919 -4.846,10.8379 -10.8379,10.8379 -5.9919,0 -10.8398,-4.846 -10.8398,-10.8379 0,-5.9919 4.8479,-10.8399 10.8398,-10.8399 z"
           id="path176" />
        <path
           style="color:#000000;fill:#ff0000"
           d="m 1057.2598,2546.8867 v 1.0196 h 302.3711 v -1.0196 z"
           id="path178" />
        <path
           style="color:#000000;fill:#ff0000"
           d="m 1056.75,2339.5215 v 207.875 h 1.0195 v -207.875 z"
           id="path180" />
        <path
           style="color:#000000;fill:#ff0000"
           d="m 1057.2598,2339.0117 v 1.0215 h 302.3711 v -1.0215 z"
           id="path182" />
        <path
           style="color:#000000;fill:#ff0000"
           d="m 1359.1191,2339.5215 v 207.875 h 1.0215 v -207.875 z"
           id="path184" />
        <path
           style="color:#000000;fill:#ff0000"
           d="m 2115.5293,2376.8066 v 1.0215 h 207.8809 v -1.0215 z"
           id="path186" />
        <path
           style="color:#000000;fill:#ff0000"
           d="m 2115.0195,2377.3164 v 302.3633 h 1.0215 v -302.3633 z"
           id="path188" />
        <path
           style="color:#000000;fill:#ff0000"
           d="m 2115.5293,2679.168 v 1.0215 h 207.8809 v -1.0215 z"
           id="path190" />
        <path
           style="color:#000000;fill:#ff0000"
           d="m 2322.9004,2377.3164 v 302.3633 h 1.0195 v -302.3633 z"
           id="path192" />
        <path
           style="color:#000000;fill:#ff0000"
           d="m 2096.1191,2377.3164 v 302.3633 h 1.0215 v -302.3633 z"
           id="path194" />
        <path
           style="color:#000000;fill:#ff0000"
           d="m 1888.7598,2679.168 v 1.0215 h 207.8711 v -1.0215 z"
           id="path196" />
        <path
           style="color:#000000;fill:#ff0000"
           d="m 1888.25,2377.3164 v 302.3633 h 1.0195 v -302.3633 z"
           id="path198" />
        <path
           style="color:#000000;fill:#ff0000"
           d="m 1888.7598,2376.8066 v 1.0215 h 207.8711 v -1.0215 z"
           id="path200" />
        <path
           style="color:#000000;fill:#ff0000"
           d="m 736.00586,2546.8867 v 1.0196 h 302.36324 v -1.0196 z"
           id="path202" />
        <path
           style="color:#000000;fill:#ff0000"
           d="m 735.49414,2339.5215 v 207.875 h 1.02148 v -207.875 z"
           id="path204" />
        <path
           style="color:#000000;fill:#ff0000"
           d="m 736.00586,2339.0117 v 1.0215 h 302.36324 v -1.0215 z"
           id="path206" />
        <path
           style="color:#000000;fill:#ff0000"
           d="m 1037.8594,2339.5215 v 207.875 h 1.0215 v -207.875 z"
           id="path208" />
        <path
           style="color:#000000;fill:#ff0000"
           d="m 1057.2598,2773.6582 v 1.0195 h 302.3711 v -1.0195 z"
           id="path210" />
        <path
           style="color:#000000;fill:#ff0000"
           d="m 1056.75,2566.2949 v 207.8731 h 1.0195 v -207.8731 z"
           id="path212" />
        <path
           style="color:#000000;fill:#ff0000"
           d="m 1057.2598,2565.7832 v 1.0215 h 302.3711 v -1.0215 z"
           id="path214" />
        <path
           style="color:#000000;fill:#ff0000"
           d="m 1359.1191,2566.2949 v 207.8731 h 1.0215 v -207.8731 z"
           id="path216" />
        <path
           style="color:#000000;fill:#ff0000"
           d="m 736.00586,2773.6582 v 1.0195 h 302.36324 v -1.0195 z"
           id="path218" />
        <path
           style="color:#000000;fill:#ff0000"
           d="m 735.49414,2566.2949 v 207.8731 h 1.02148 v -207.8731 z"
           id="path220" />
        <path
           style="color:#000000;fill:#ff0000"
           d="m 736.00586,2565.7832 v 1.0215 h 302.36324 v -1.0215 z"
           id="path222" />
        <path
           style="color:#000000;fill:#ff0000"
           d="m 1037.8594,2566.2949 v 207.8731 h 1.0215 v -207.8731 z"
           id="path224" />
        <path
           style="color:#000000;fill:#ff0000"
           d="m 1057.2598,3000.4297 v 1.0195 h 302.3711 v -1.0195 z"
           id="path226" />
        <path
           style="color:#000000;fill:#ff0000"
           d="m 1056.75,2793.0645 v 207.875 h 1.0195 v -207.875 z"
           id="path228" />
        <path
           style="color:#000000;fill:#ff0000"
           d="m 1057.2598,2792.5547 v 1.0215 h 302.3711 v -1.0215 z"
           id="path230" />
        <path
           style="color:#000000;fill:#ff0000"
           d="m 1359.1191,2793.0645 v 207.875 h 1.0215 v -207.875 z"
           id="path232" />
        <path
           style="color:#000000;fill:#ff0000"
           d="m 736.00586,3000.4297 v 1.0195 h 302.36324 v -1.0195 z"
           id="path234" />
        <path
           style="color:#000000;fill:#ff0000"
           d="m 735.49414,2793.0645 v 207.875 h 1.02148 v -207.875 z"
           id="path236" />
        <path
           style="color:#000000;fill:#ff0000"
           d="m 736.00586,2792.5547 v 1.0215 h 302.36324 v -1.0215 z"
           id="path238" />
        <path
           style="color:#000000;fill:#ff0000"
           d="m 1037.8594,2793.0645 v 207.875 h 1.0215 v -207.875 z"
           id="path240" />
        <path
           style="color:#000000;fill:#000000"
           d="m 781.35937,1666.2656 c -6.53234,0 -11.83789,5.3075 -11.83789,11.8399 0,6.5323 5.30555,11.8379 11.83789,11.8379 6.53235,0 11.8379,-5.3056 11.8379,-11.8379 0,-6.5324 -5.30555,-11.8399 -11.8379,-11.8399 z m 0,1 c 5.99191,0 10.8379,4.848 10.8379,10.8399 0,5.9919 -4.84599,10.8379 -10.8379,10.8379 -5.9919,0 -10.83789,-4.846 -10.83789,-10.8379 0,-5.9919 4.84599,-10.8399 10.83789,-10.8399 z"
           id="path242" />
        <path
           style="color:#000000;fill:#000000"
           d="m 781.35937,1435.7148 c -6.53234,0 -11.83789,5.3056 -11.83789,11.8379 0,6.5324 5.30555,11.8399 11.83789,11.8399 6.53235,0 11.8379,-5.3075 11.8379,-11.8399 0,-6.5323 -5.30555,-11.8379 -11.8379,-11.8379 z m 0,1 c 5.99191,0 10.8379,4.846 10.8379,10.8379 0,5.9919 -4.84599,10.8399 -10.8379,10.8399 -5.9919,0 -10.83789,-4.848 -10.83789,-10.8399 0,-5.9919 4.84599,-10.8379 10.83789,-10.8379 z"
           id="path244" />
        <path
           style="color:#000000;fill:#000000"
           d="m 781.35937,1337.4473 c -6.53234,0 -11.83789,5.3055 -11.83789,11.8379 0,6.5323 5.30555,11.8398 11.83789,11.8398 6.53235,0 11.8379,-5.3075 11.8379,-11.8398 0,-6.5324 -5.30555,-11.8379 -11.8379,-11.8379 z m 0,1 c 5.99191,0 10.8379,4.846 10.8379,10.8379 0,5.9919 -4.84599,10.8398 -10.8379,10.8398 -5.9919,0 -10.83789,-4.8479 -10.83789,-10.8398 0,-5.9919 4.84599,-10.8379 10.83789,-10.8379 z"
           id="path246" />
        <path
           style="color:#000000;fill:#000000"
           d="m 781.35937,1095.5566 c -6.53234,0 -11.83789,5.3075 -11.83789,11.8399 0,6.5323 5.30555,11.8379 11.83789,11.8379 6.53235,0 11.8379,-5.3056 11.8379,-11.8379 0,-6.5324 -5.30555,-11.8399 -11.8379,-11.8399 z m 0,1 c 5.99191,0 10.8379,4.848 10.8379,10.8399 0,5.9919 -4.84599,10.8379 -10.8379,10.8379 -5.9919,0 -10.83789,-4.846 -10.83789,-10.8379 0,-5.9919 4.84599,-10.8399 10.83789,-10.8399 z"
           id="path248" />
      </g>
      <g
         id="path3407">
        <path
           style="color:#000000;fill:#ff0000;stroke-width:1.88953;-inkscape-stroke:none"
           d="M 2880.0464,14.142409 H -5.9995773 l 0.234264,0.135152 0.015797,-0.02735 h 0.5001225"
           id="path4656" />
        <path
           style="color:#000000;fill:#ff0000;-inkscape-stroke:none"
           d="m -9.5273438,13.197266 4.1074219,2.371093 0.2148438,-0.373046 H -5.25 V 15.087891 H 2880.0469 V 13.197266 H -5.7480469 l 0.1875,0.107422 h -0.734375 l 0.0625,-0.107422 z"
           id="path4658" />
      </g>
      <g
         id="path4197">
        <path
           style="color:#000000;fill:#ff0000;stroke-width:1.88714;-inkscape-stroke:none"
           d="M 6.0103364,2255.3316 V 13.432486 h 1.0619691 v 0"
           id="path4662" />
        <path
           style="color:#000000;fill:#ff0000;-inkscape-stroke:none"
           d="M 5.0664062,12.488281 V 2255.332 H 6.953125 V 14.376953 h 0.1191406 v -1.888672 z"
           id="path4664" />
      </g>
      <g
         id="path4199">
        <path
           style="color:#000000;fill:#ff0000;stroke-width:1.88976;-inkscape-stroke:none"
           d="M 2880.5001,2255.0001 H 6.0000001 v 0"
           id="path4668" />
        <path
           style="color:#000000;fill:#ff0000;-inkscape-stroke:none"
           d="m 6,2254.0547 v 1.8906 h 2874.5 v -1.8906 z"
           id="path4670" />
      </g>
    </g>
  </g>
</svg>
